<svg xmlns="http://www.w3.org/2000/svg" xmlns:xlink="http://www.w3.org/1999/xlink" width="150" zoomAndPan="magnify" viewBox="0 0 112.5 74.999997" height="100" preserveAspectRatio="xMidYMid meet" version="1.0"><defs><g/><clipPath id="7d3cd91a44"><path d="M 0 0.164062 L 112.003906 0.164062 L 112.003906 74.832031 L 0 74.832031 Z M 0 0.164062 " clip-rule="nonzero"/></clipPath><clipPath id="f22e23a22a"><path d="M 79 7 L 95.742188 7 L 95.742188 21 L 79 21 Z M 79 7 " clip-rule="nonzero"/></clipPath><clipPath id="69a491f2c4"><path d="M 79.558594 7.035156 L 95.332031 7.621094 L 94.835938 20.96875 L 79.0625 20.382812 Z M 79.558594 7.035156 " clip-rule="nonzero"/></clipPath><clipPath id="25650c5126"><path d="M 79.558594 7.035156 L 95.332031 7.621094 L 94.835938 20.96875 L 79.0625 20.382812 Z M 79.558594 7.035156 " clip-rule="nonzero"/></clipPath><clipPath id="d41b540127"><path d="M 83 10 L 91 10 L 91 18 L 83 18 Z M 83 10 " clip-rule="nonzero"/></clipPath><clipPath id="30f5681697"><path d="M 83.777344 9.429688 L 93.050781 12.324219 L 90.878906 19.277344 L 81.605469 16.382812 Z M 83.777344 9.429688 " clip-rule="nonzero"/></clipPath><clipPath id="75d4ced971"><path d="M 83.777344 9.429688 L 93.050781 12.324219 L 90.878906 19.277344 L 81.605469 16.382812 Z M 83.777344 9.429688 " clip-rule="nonzero"/></clipPath><clipPath id="6b4dd6099f"><path d="M 0.46875 3 L 9 3 L 9 6.679688 L 0.46875 6.679688 Z M 0.46875 3 " clip-rule="nonzero"/></clipPath><clipPath id="a1b9ff8682"><path d="M 8 0.605469 L 11.394531 0.605469 L 11.394531 6.679688 L 8 6.679688 Z M 8 0.605469 " clip-rule="nonzero"/></clipPath><clipPath id="10115ec1e2"><path d="M 47 2 L 79 2 L 79 24.910156 L 47 24.910156 Z M 47 2 " clip-rule="nonzero"/></clipPath><clipPath id="3c56e5f269"><path d="M 0.238281 5 L 11 5 L 11 18 L 0.238281 18 Z M 0.238281 5 " clip-rule="nonzero"/></clipPath><clipPath id="d684255fff"><rect x="0" width="32" y="0" height="23"/></clipPath><clipPath id="91210a7b64"><rect x="0" width="43" y="0" height="17"/></clipPath><clipPath id="dfb4dcd7f4"><rect x="0" width="96" y="0" height="25"/></clipPath></defs><g transform="matrix(1, 0, 0, 1, 7, 24)"><g clip-path="url(#dfb4dcd7f4)"><g clip-path="url(#f22e23a22a)"><g clip-path="url(#69a491f2c4)"><g clip-path="url(#25650c5126)"><path fill="#ffffff" d="M 87.480469 15.996094 C 87.480469 15.996094 87.484375 15.996094 87.480469 15.996094 C 87.484375 15.996094 87.484375 15.996094 87.488281 15.996094 C 87.484375 15.996094 87.484375 15.996094 87.480469 15.996094 Z M 95.515625 12.152344 C 95.515625 12.15625 95.515625 12.160156 95.515625 12.167969 C 95.515625 12.175781 95.515625 12.1875 95.515625 12.195312 C 95.515625 12.214844 95.511719 12.230469 95.511719 12.25 C 95.503906 12.292969 95.5 12.335938 95.492188 12.378906 C 95.480469 12.449219 95.464844 12.519531 95.453125 12.585938 C 95.433594 12.660156 95.417969 12.734375 95.398438 12.804688 C 95.308594 13.117188 95.195312 13.421875 95.082031 13.730469 C 94.953125 14.074219 94.832031 14.417969 94.714844 14.765625 C 94.714844 14.765625 94.714844 14.769531 94.714844 14.769531 C 94.714844 14.773438 94.714844 14.773438 94.710938 14.773438 C 94.664062 14.917969 94.621094 15.0625 94.574219 15.207031 C 94.523438 15.371094 94.472656 15.527344 94.421875 15.6875 C 94.324219 16 94.226562 16.316406 94.136719 16.632812 C 94.089844 16.796875 94.042969 16.960938 93.996094 17.121094 C 93.953125 17.277344 93.910156 17.429688 93.867188 17.582031 C 93.824219 17.742188 93.78125 17.898438 93.738281 18.054688 C 93.695312 18.210938 93.648438 18.363281 93.597656 18.515625 C 93.507812 18.804688 93.402344 19.089844 93.300781 19.375 C 93.246094 19.515625 93.195312 19.65625 93.140625 19.796875 C 93.097656 19.917969 93.050781 20.039062 93 20.15625 C 92.988281 20.179688 92.976562 20.207031 92.96875 20.230469 C 92.964844 20.246094 92.957031 20.257812 92.953125 20.269531 C 92.949219 20.28125 92.945312 20.289062 92.941406 20.296875 C 92.9375 20.296875 92.9375 20.304688 92.933594 20.304688 C 92.929688 20.3125 92.925781 20.320312 92.921875 20.332031 C 92.894531 20.386719 92.871094 20.4375 92.839844 20.488281 C 92.808594 20.546875 92.773438 20.601562 92.734375 20.652344 C 92.714844 20.679688 92.691406 20.703125 92.671875 20.730469 C 92.648438 20.757812 92.621094 20.78125 92.59375 20.804688 C 92.566406 20.828125 92.535156 20.847656 92.507812 20.867188 C 92.472656 20.886719 92.441406 20.902344 92.40625 20.917969 C 92.34375 20.945312 92.273438 20.96875 92.207031 20.984375 C 92.128906 21.003906 92.046875 21.015625 91.964844 21.023438 C 91.902344 21.027344 91.835938 21.035156 91.769531 21.035156 C 91.765625 21.035156 91.761719 21.035156 91.757812 21.035156 C 91.601562 21.035156 91.441406 21.027344 91.285156 21.011719 C 91.125 20.996094 90.960938 20.96875 90.804688 20.941406 C 90.636719 20.910156 90.46875 20.875 90.304688 20.839844 C 90.128906 20.804688 89.953125 20.765625 89.78125 20.726562 C 89.636719 20.695312 89.492188 20.664062 89.34375 20.636719 C 89.019531 20.566406 88.695312 20.496094 88.375 20.414062 C 88.042969 20.335938 87.710938 20.246094 87.386719 20.15625 C 87.214844 20.109375 87.046875 20.066406 86.878906 20.015625 C 86.710938 19.964844 86.539062 19.914062 86.371094 19.859375 C 86.210938 19.804688 86.054688 19.742188 85.894531 19.683594 C 85.734375 19.625 85.578125 19.5625 85.421875 19.507812 C 85.117188 19.390625 84.8125 19.285156 84.503906 19.179688 C 84.351562 19.128906 84.199219 19.074219 84.046875 19.027344 C 84.042969 19.027344 84.042969 19.027344 84.042969 19.023438 C 83.738281 18.925781 83.429688 18.832031 83.132812 18.726562 C 82.980469 18.671875 82.828125 18.613281 82.675781 18.554688 C 82.523438 18.492188 82.378906 18.429688 82.230469 18.359375 C 82.152344 18.328125 82.078125 18.292969 82.003906 18.257812 C 81.996094 18.253906 81.992188 18.25 81.984375 18.25 C 81.984375 18.25 81.980469 18.25 81.980469 18.246094 C 81.976562 18.242188 81.972656 18.242188 81.96875 18.238281 C 81.964844 18.238281 81.960938 18.238281 81.960938 18.238281 C 81.960938 18.238281 81.960938 18.234375 81.957031 18.234375 C 81.953125 18.234375 81.953125 18.230469 81.949219 18.230469 C 81.941406 18.226562 81.933594 18.222656 81.925781 18.21875 C 81.90625 18.210938 81.886719 18.203125 81.867188 18.191406 C 81.832031 18.175781 81.792969 18.15625 81.761719 18.140625 C 81.617188 18.070312 81.46875 17.996094 81.324219 17.925781 C 81.058594 17.792969 80.792969 17.652344 80.53125 17.503906 C 80.402344 17.429688 80.273438 17.355469 80.148438 17.273438 C 80.027344 17.195312 79.910156 17.113281 79.796875 17.027344 C 79.75 16.988281 79.707031 16.953125 79.664062 16.914062 C 79.628906 16.882812 79.59375 16.851562 79.558594 16.816406 C 79.503906 16.761719 79.453125 16.703125 79.402344 16.640625 C 79.371094 16.59375 79.335938 16.546875 79.308594 16.5 C 79.289062 16.46875 79.273438 16.441406 79.261719 16.40625 C 79.257812 16.402344 79.253906 16.402344 79.25 16.402344 C 79.21875 16.378906 79.226562 16.332031 79.226562 16.296875 C 79.230469 16.246094 79.234375 16.195312 79.238281 16.144531 C 79.253906 15.996094 79.265625 15.847656 79.285156 15.699219 C 79.304688 15.535156 79.332031 15.371094 79.359375 15.210938 C 79.382812 15.054688 79.414062 14.902344 79.445312 14.75 C 79.511719 14.4375 79.59375 14.132812 79.675781 13.824219 C 79.71875 13.671875 79.761719 13.515625 79.808594 13.363281 C 79.859375 13.203125 79.910156 13.046875 79.964844 12.894531 C 80.050781 12.59375 80.160156 12.289062 80.265625 11.988281 C 80.320312 11.835938 80.375 11.683594 80.433594 11.53125 C 80.492188 11.382812 80.546875 11.230469 80.605469 11.078125 C 80.726562 10.773438 80.839844 10.46875 80.957031 10.164062 C 81.074219 9.851562 81.1875 9.535156 81.300781 9.222656 C 81.410156 8.925781 81.519531 8.628906 81.640625 8.335938 C 81.753906 8.0625 81.875 7.777344 82.089844 7.566406 C 82.144531 7.507812 82.199219 7.460938 82.261719 7.417969 C 82.292969 7.394531 82.324219 7.371094 82.359375 7.351562 C 82.394531 7.332031 82.429688 7.3125 82.46875 7.296875 C 82.535156 7.265625 82.601562 7.242188 82.667969 7.222656 C 82.75 7.203125 82.828125 7.1875 82.90625 7.179688 C 83.0625 7.167969 83.214844 7.171875 83.371094 7.1875 C 83.453125 7.199219 83.535156 7.214844 83.617188 7.226562 C 83.695312 7.242188 83.773438 7.261719 83.847656 7.277344 C 84.007812 7.3125 84.167969 7.355469 84.332031 7.394531 C 84.484375 7.4375 84.632812 7.476562 84.785156 7.519531 C 84.945312 7.5625 85.101562 7.613281 85.253906 7.65625 C 85.410156 7.703125 85.5625 7.753906 85.71875 7.800781 C 85.976562 7.886719 86.234375 7.96875 86.492188 8.054688 C 86.738281 8.136719 86.988281 8.222656 87.238281 8.304688 C 87.394531 8.351562 87.546875 8.402344 87.703125 8.449219 C 87.863281 8.5 88.019531 8.546875 88.179688 8.59375 C 88.488281 8.6875 88.800781 8.78125 89.109375 8.882812 C 89.433594 8.988281 89.753906 9.09375 90.070312 9.207031 C 90.222656 9.257812 90.371094 9.308594 90.519531 9.363281 C 90.667969 9.414062 90.816406 9.464844 90.964844 9.519531 C 91.292969 9.632812 91.625 9.75 91.949219 9.867188 C 92.261719 9.980469 92.566406 10.09375 92.882812 10.199219 C 92.933594 10.21875 92.984375 10.234375 93.039062 10.25 C 93.039062 10.25 93.035156 10.25 93.035156 10.25 C 93.039062 10.25 93.039062 10.25 93.042969 10.253906 C 93.183594 10.300781 93.324219 10.34375 93.46875 10.386719 C 93.621094 10.433594 93.777344 10.480469 93.929688 10.535156 C 94.21875 10.636719 94.5 10.753906 94.765625 10.90625 C 94.878906 10.96875 94.984375 11.042969 95.085938 11.128906 C 95.152344 11.1875 95.207031 11.25 95.265625 11.316406 C 95.316406 11.375 95.359375 11.441406 95.394531 11.507812 C 95.453125 11.632812 95.488281 11.769531 95.507812 11.902344 C 95.515625 11.976562 95.519531 12.046875 95.515625 12.117188 C 95.515625 12.128906 95.515625 12.140625 95.515625 12.152344 Z M 82.007812 7.871094 C 81.988281 7.898438 81.972656 7.925781 81.957031 7.957031 C 81.96875 7.972656 81.984375 7.988281 81.996094 8.003906 C 82.035156 8.058594 82.070312 8.113281 82.109375 8.164062 C 82.171875 8.25 82.230469 8.339844 82.289062 8.429688 C 82.351562 8.519531 82.410156 8.613281 82.472656 8.707031 C 82.53125 8.796875 82.589844 8.890625 82.652344 8.984375 C 82.714844 9.078125 82.78125 9.171875 82.847656 9.265625 C 82.882812 9.320312 82.921875 9.375 82.960938 9.429688 C 82.976562 9.449219 82.988281 9.464844 83 9.484375 C 83 9.484375 83 9.480469 82.996094 9.480469 C 82.996094 9.484375 83 9.484375 83 9.488281 C 83.003906 9.492188 83.003906 9.492188 83.003906 9.492188 C 83.011719 9.5 83.015625 9.507812 83.019531 9.515625 C 83.019531 9.515625 83.019531 9.519531 83.023438 9.519531 C 83.03125 9.527344 83.035156 9.539062 83.042969 9.546875 C 83.058594 9.570312 83.074219 9.589844 83.089844 9.609375 C 83.105469 9.628906 83.117188 9.648438 83.132812 9.667969 C 83.195312 9.753906 83.253906 9.839844 83.316406 9.925781 C 83.375 10.011719 83.4375 10.097656 83.5 10.183594 C 83.640625 10.382812 83.777344 10.578125 83.910156 10.777344 C 84.046875 10.972656 84.179688 11.164062 84.308594 11.363281 C 84.445312 11.5625 84.570312 11.757812 84.699219 11.957031 C 84.832031 12.15625 84.960938 12.359375 85.09375 12.554688 C 85.179688 12.679688 85.269531 12.804688 85.355469 12.929688 C 85.359375 12.929688 85.359375 12.933594 85.359375 12.933594 C 85.359375 12.933594 85.359375 12.933594 85.363281 12.9375 C 85.363281 12.9375 85.367188 12.9375 85.367188 12.941406 C 85.367188 12.941406 85.367188 12.9375 85.363281 12.9375 C 85.367188 12.941406 85.367188 12.945312 85.371094 12.949219 C 85.371094 12.949219 85.371094 12.945312 85.367188 12.945312 C 85.425781 13.027344 85.488281 13.113281 85.546875 13.195312 C 85.574219 13.230469 85.597656 13.261719 85.625 13.292969 C 85.628906 13.265625 85.640625 13.242188 85.648438 13.21875 C 85.660156 13.183594 85.675781 13.152344 85.691406 13.117188 C 85.707031 13.082031 85.726562 13.046875 85.746094 13.011719 C 85.753906 12.996094 85.765625 12.980469 85.777344 12.96875 C 85.789062 12.953125 85.800781 12.9375 85.8125 12.921875 C 85.835938 12.894531 85.863281 12.867188 85.886719 12.84375 C 85.902344 12.832031 85.917969 12.820312 85.933594 12.804688 C 85.953125 12.792969 85.96875 12.78125 85.984375 12.773438 C 86.046875 12.730469 86.121094 12.703125 86.195312 12.6875 C 86.191406 12.6875 86.1875 12.691406 86.183594 12.691406 C 86.195312 12.6875 86.203125 12.6875 86.210938 12.6875 C 86.207031 12.6875 86.203125 12.6875 86.203125 12.6875 C 86.277344 12.671875 86.355469 12.664062 86.433594 12.671875 C 86.453125 12.671875 86.472656 12.671875 86.492188 12.675781 C 86.511719 12.679688 86.53125 12.679688 86.550781 12.683594 C 86.589844 12.6875 86.628906 12.695312 86.664062 12.707031 C 86.683594 12.710938 86.703125 12.714844 86.722656 12.722656 C 86.738281 12.726562 86.753906 12.734375 86.773438 12.738281 C 86.804688 12.75 86.839844 12.765625 86.875 12.777344 C 86.90625 12.792969 86.941406 12.8125 86.976562 12.828125 C 87.007812 12.847656 87.039062 12.863281 87.074219 12.882812 C 87.117188 12.914062 87.160156 12.941406 87.199219 12.976562 C 87.246094 13.007812 87.285156 13.046875 87.324219 13.089844 C 87.320312 13.085938 87.320312 13.085938 87.316406 13.082031 C 87.320312 13.085938 87.324219 13.089844 87.328125 13.09375 C 87.339844 13.109375 87.351562 13.121094 87.363281 13.136719 C 87.367188 13.140625 87.371094 13.148438 87.371094 13.148438 C 87.375 13.152344 87.375 13.15625 87.378906 13.15625 C 87.378906 13.15625 87.382812 13.160156 87.386719 13.167969 C 87.390625 13.175781 87.394531 13.179688 87.398438 13.1875 C 87.421875 13.21875 87.4375 13.25 87.453125 13.28125 C 87.472656 13.3125 87.488281 13.347656 87.503906 13.378906 C 87.519531 13.414062 87.535156 13.445312 87.550781 13.480469 C 87.566406 13.511719 87.578125 13.546875 87.589844 13.582031 C 87.605469 13.617188 87.621094 13.65625 87.632812 13.691406 C 87.644531 13.730469 87.65625 13.765625 87.664062 13.800781 C 87.671875 13.828125 87.679688 13.851562 87.683594 13.878906 C 87.6875 13.886719 87.6875 13.894531 87.6875 13.898438 C 87.703125 13.886719 87.722656 13.871094 87.738281 13.855469 C 87.796875 13.8125 87.859375 13.773438 87.925781 13.742188 C 87.960938 13.726562 87.992188 13.710938 88.023438 13.695312 C 88.058594 13.683594 88.09375 13.667969 88.128906 13.65625 C 88.164062 13.644531 88.199219 13.632812 88.238281 13.625 C 88.273438 13.613281 88.3125 13.605469 88.351562 13.601562 C 88.367188 13.597656 88.390625 13.59375 88.410156 13.59375 C 88.425781 13.589844 88.445312 13.585938 88.460938 13.589844 C 88.5 13.585938 88.539062 13.589844 88.578125 13.59375 C 88.597656 13.597656 88.621094 13.601562 88.640625 13.605469 C 88.660156 13.609375 88.679688 13.617188 88.699219 13.621094 C 88.734375 13.632812 88.773438 13.648438 88.808594 13.667969 C 88.832031 13.679688 88.855469 13.695312 88.878906 13.710938 C 88.902344 13.726562 88.925781 13.742188 88.941406 13.761719 C 88.980469 13.804688 89.011719 13.851562 89.039062 13.898438 C 89.039062 13.898438 89.039062 13.894531 89.035156 13.894531 C 89.035156 13.898438 89.039062 13.898438 89.039062 13.898438 C 89.039062 13.902344 89.039062 13.90625 89.042969 13.90625 C 89.0625 13.941406 89.078125 13.976562 89.089844 14.015625 C 89.097656 14.050781 89.105469 14.089844 89.113281 14.125 C 89.117188 14.164062 89.121094 14.199219 89.121094 14.234375 C 89.121094 14.238281 89.121094 14.246094 89.121094 14.246094 C 89.167969 14.21875 89.214844 14.191406 89.261719 14.164062 C 89.378906 14.101562 89.503906 14.046875 89.628906 13.996094 C 89.753906 13.941406 89.882812 13.890625 90.011719 13.84375 C 90.140625 13.792969 90.273438 13.746094 90.40625 13.703125 C 90.535156 13.664062 90.664062 13.621094 90.792969 13.582031 C 91.0625 13.496094 91.332031 13.414062 91.601562 13.332031 C 91.863281 13.253906 92.125 13.175781 92.386719 13.101562 C 92.652344 13.027344 92.914062 12.953125 93.175781 12.878906 C 93.308594 12.839844 93.441406 12.800781 93.570312 12.761719 C 93.707031 12.722656 93.839844 12.683594 93.976562 12.644531 C 94.230469 12.566406 94.484375 12.488281 94.738281 12.402344 C 94.8125 12.375 94.886719 12.351562 94.960938 12.324219 C 94.96875 12.320312 94.976562 12.316406 94.980469 12.316406 C 94.984375 12.316406 94.988281 12.3125 94.988281 12.3125 C 94.992188 12.3125 94.996094 12.308594 95 12.3125 C 95.074219 12.285156 95.148438 12.253906 95.222656 12.222656 C 95.257812 12.210938 95.292969 12.195312 95.324219 12.183594 C 95.335938 12.179688 95.351562 12.175781 95.359375 12.167969 C 95.367188 12.167969 95.371094 12.164062 95.378906 12.160156 C 95.382812 12.160156 95.386719 12.160156 95.390625 12.15625 C 95.390625 12.15625 95.390625 12.15625 95.390625 12.152344 C 95.390625 12.144531 95.390625 12.136719 95.390625 12.128906 C 95.394531 12.101562 95.394531 12.074219 95.394531 12.046875 C 95.390625 12.015625 95.390625 11.984375 95.386719 11.957031 C 95.382812 11.898438 95.375 11.839844 95.363281 11.78125 C 95.351562 11.734375 95.339844 11.691406 95.320312 11.644531 C 95.304688 11.605469 95.289062 11.566406 95.269531 11.53125 C 95.253906 11.503906 95.242188 11.476562 95.222656 11.453125 C 95.1875 11.402344 95.148438 11.355469 95.109375 11.3125 C 95.070312 11.269531 95.03125 11.234375 94.988281 11.195312 C 94.933594 11.152344 94.871094 11.109375 94.8125 11.066406 C 94.695312 10.996094 94.578125 10.933594 94.457031 10.875 C 94.335938 10.816406 94.210938 10.761719 94.082031 10.714844 C 93.949219 10.664062 93.8125 10.617188 93.671875 10.574219 C 93.523438 10.523438 93.371094 10.476562 93.21875 10.429688 C 93.070312 10.386719 92.921875 10.335938 92.773438 10.289062 C 92.621094 10.234375 92.46875 10.179688 92.3125 10.125 C 92.152344 10.070312 91.996094 10.011719 91.835938 9.953125 C 91.511719 9.839844 91.1875 9.722656 90.863281 9.609375 C 90.5625 9.503906 90.257812 9.398438 89.960938 9.292969 C 89.6875 9.199219 89.410156 9.109375 89.136719 9.015625 C 88.824219 8.914062 88.515625 8.820312 88.203125 8.726562 C 88.046875 8.679688 87.890625 8.632812 87.738281 8.585938 C 87.578125 8.542969 87.421875 8.492188 87.269531 8.441406 C 86.816406 8.296875 86.375 8.140625 85.921875 7.996094 C 85.765625 7.941406 85.609375 7.894531 85.449219 7.84375 C 85.292969 7.792969 85.136719 7.75 84.980469 7.703125 C 84.828125 7.65625 84.671875 7.613281 84.515625 7.570312 C 84.363281 7.53125 84.214844 7.488281 84.058594 7.449219 C 83.890625 7.410156 83.722656 7.371094 83.550781 7.335938 C 83.492188 7.328125 83.433594 7.316406 83.375 7.308594 C 83.316406 7.300781 83.261719 7.296875 83.203125 7.292969 C 83.164062 7.292969 83.128906 7.292969 83.089844 7.292969 C 83.042969 7.292969 82.996094 7.292969 82.949219 7.296875 C 82.917969 7.300781 82.890625 7.304688 82.859375 7.308594 C 82.824219 7.3125 82.789062 7.320312 82.753906 7.328125 C 82.726562 7.332031 82.703125 7.339844 82.679688 7.34375 C 82.65625 7.351562 82.632812 7.359375 82.609375 7.367188 C 82.570312 7.382812 82.523438 7.402344 82.484375 7.421875 C 82.4375 7.449219 82.398438 7.472656 82.351562 7.503906 C 82.316406 7.53125 82.28125 7.5625 82.242188 7.59375 C 82.222656 7.613281 82.203125 7.632812 82.183594 7.652344 C 82.160156 7.671875 82.140625 7.695312 82.121094 7.71875 C 82.074219 7.773438 82.039062 7.820312 82.007812 7.871094 Z M 88.800781 14.800781 C 88.824219 14.757812 88.84375 14.71875 88.867188 14.675781 C 88.902344 14.597656 88.933594 14.523438 88.960938 14.441406 C 88.96875 14.40625 88.980469 14.375 88.988281 14.339844 C 88.992188 14.3125 88.992188 14.289062 88.996094 14.261719 C 89 14.234375 89 14.210938 88.996094 14.183594 C 88.996094 14.167969 88.996094 14.15625 88.992188 14.140625 C 88.992188 14.125 88.988281 14.113281 88.984375 14.097656 C 88.976562 14.070312 88.96875 14.050781 88.964844 14.023438 C 88.957031 14.003906 88.949219 13.988281 88.9375 13.972656 C 88.941406 13.976562 88.941406 13.976562 88.941406 13.980469 C 88.9375 13.976562 88.933594 13.96875 88.933594 13.964844 C 88.933594 13.964844 88.933594 13.964844 88.933594 13.960938 C 88.921875 13.941406 88.910156 13.921875 88.898438 13.902344 C 88.886719 13.890625 88.878906 13.878906 88.867188 13.867188 C 88.859375 13.855469 88.84375 13.84375 88.835938 13.832031 C 88.828125 13.824219 88.816406 13.820312 88.808594 13.8125 C 88.800781 13.808594 88.789062 13.800781 88.78125 13.796875 C 88.765625 13.785156 88.746094 13.773438 88.730469 13.765625 C 88.710938 13.757812 88.695312 13.75 88.675781 13.746094 C 88.652344 13.738281 88.632812 13.734375 88.609375 13.730469 C 88.597656 13.726562 88.582031 13.726562 88.566406 13.722656 C 88.554688 13.71875 88.539062 13.71875 88.523438 13.71875 C 88.503906 13.71875 88.492188 13.71875 88.476562 13.714844 C 88.460938 13.714844 88.445312 13.71875 88.429688 13.71875 C 88.40625 13.722656 88.390625 13.722656 88.367188 13.730469 C 88.347656 13.730469 88.328125 13.734375 88.308594 13.738281 C 88.257812 13.75 88.207031 13.769531 88.160156 13.785156 C 88.09375 13.8125 88.03125 13.839844 87.96875 13.871094 C 87.925781 13.894531 87.886719 13.917969 87.84375 13.949219 C 87.8125 13.96875 87.785156 13.992188 87.757812 14.015625 C 87.742188 14.03125 87.730469 14.042969 87.714844 14.058594 C 87.714844 14.066406 87.714844 14.074219 87.714844 14.082031 C 87.710938 14.09375 87.707031 14.109375 87.695312 14.117188 C 87.679688 14.132812 87.65625 14.140625 87.632812 14.132812 C 87.613281 14.125 87.605469 14.109375 87.597656 14.09375 C 87.59375 14.085938 87.59375 14.078125 87.59375 14.074219 C 87.582031 14.058594 87.582031 14.035156 87.589844 14.015625 C 87.585938 13.980469 87.578125 13.941406 87.570312 13.902344 C 87.558594 13.867188 87.550781 13.832031 87.539062 13.796875 C 87.53125 13.761719 87.519531 13.722656 87.503906 13.6875 C 87.480469 13.628906 87.460938 13.574219 87.433594 13.519531 C 87.410156 13.464844 87.382812 13.414062 87.359375 13.359375 C 87.332031 13.3125 87.308594 13.269531 87.277344 13.226562 C 87.28125 13.230469 87.28125 13.234375 87.28125 13.234375 C 87.28125 13.230469 87.277344 13.226562 87.273438 13.222656 C 87.265625 13.210938 87.253906 13.195312 87.242188 13.183594 C 87.246094 13.183594 87.246094 13.183594 87.25 13.1875 C 87.246094 13.183594 87.246094 13.183594 87.242188 13.183594 C 87.242188 13.179688 87.238281 13.175781 87.234375 13.175781 C 87.234375 13.171875 87.234375 13.171875 87.230469 13.167969 C 87.230469 13.167969 87.234375 13.171875 87.234375 13.171875 C 87.207031 13.144531 87.179688 13.117188 87.148438 13.09375 C 87.128906 13.078125 87.109375 13.0625 87.089844 13.046875 C 87.066406 13.03125 87.046875 13.019531 87.023438 13 C 87 12.984375 86.96875 12.964844 86.941406 12.953125 C 86.910156 12.933594 86.882812 12.921875 86.851562 12.90625 C 86.824219 12.894531 86.800781 12.882812 86.773438 12.875 C 86.75 12.867188 86.722656 12.855469 86.699219 12.847656 C 86.679688 12.839844 86.65625 12.835938 86.636719 12.828125 C 86.617188 12.824219 86.59375 12.820312 86.574219 12.8125 C 86.554688 12.808594 86.535156 12.804688 86.515625 12.804688 C 86.492188 12.800781 86.472656 12.800781 86.449219 12.796875 C 86.429688 12.796875 86.410156 12.796875 86.394531 12.796875 C 86.375 12.796875 86.351562 12.796875 86.332031 12.800781 C 86.304688 12.804688 86.273438 12.804688 86.242188 12.8125 C 86.246094 12.8125 86.246094 12.8125 86.25 12.8125 C 86.246094 12.8125 86.246094 12.8125 86.242188 12.8125 C 86.238281 12.816406 86.230469 12.8125 86.222656 12.816406 C 86.226562 12.816406 86.226562 12.816406 86.230469 12.8125 C 86.226562 12.8125 86.222656 12.8125 86.222656 12.816406 C 86.210938 12.820312 86.203125 12.820312 86.191406 12.824219 C 86.183594 12.824219 86.171875 12.828125 86.164062 12.832031 C 86.152344 12.839844 86.140625 12.84375 86.128906 12.847656 C 86.113281 12.851562 86.101562 12.859375 86.089844 12.867188 C 86.078125 12.875 86.066406 12.878906 86.054688 12.886719 C 86.042969 12.894531 86.03125 12.902344 86.019531 12.910156 C 86.011719 12.914062 86.003906 12.921875 85.996094 12.925781 C 85.988281 12.933594 85.980469 12.941406 85.972656 12.945312 C 85.960938 12.957031 85.953125 12.964844 85.945312 12.972656 C 85.933594 12.984375 85.921875 12.996094 85.914062 13.007812 C 85.90625 13.019531 85.894531 13.03125 85.886719 13.039062 C 85.878906 13.054688 85.871094 13.066406 85.859375 13.078125 C 85.851562 13.09375 85.84375 13.105469 85.835938 13.121094 C 85.828125 13.136719 85.820312 13.148438 85.8125 13.164062 C 85.804688 13.1875 85.796875 13.203125 85.785156 13.226562 C 85.777344 13.246094 85.769531 13.273438 85.761719 13.292969 C 85.753906 13.324219 85.742188 13.355469 85.734375 13.386719 C 85.726562 13.417969 85.722656 13.449219 85.714844 13.480469 C 85.707031 13.519531 85.703125 13.554688 85.699219 13.59375 C 85.695312 13.628906 85.695312 13.660156 85.691406 13.695312 C 85.691406 13.714844 85.691406 13.738281 85.691406 13.757812 C 85.691406 13.78125 85.691406 13.800781 85.691406 13.828125 C 85.691406 13.867188 85.695312 13.910156 85.699219 13.949219 C 85.699219 13.949219 85.699219 13.949219 85.699219 13.945312 C 85.707031 13.996094 85.710938 14.042969 85.71875 14.09375 C 85.722656 14.117188 85.726562 14.144531 85.730469 14.171875 C 85.738281 14.1875 85.742188 14.210938 85.746094 14.230469 C 85.753906 14.265625 85.761719 14.296875 85.773438 14.335938 C 85.78125 14.363281 85.789062 14.398438 85.800781 14.425781 C 85.824219 14.492188 85.847656 14.5625 85.871094 14.628906 C 85.871094 14.628906 85.871094 14.628906 85.871094 14.625 C 85.871094 14.636719 85.878906 14.644531 85.878906 14.65625 C 85.878906 14.652344 85.875 14.648438 85.878906 14.648438 C 85.878906 14.65625 85.882812 14.667969 85.886719 14.675781 C 85.886719 14.671875 85.882812 14.667969 85.882812 14.667969 C 85.910156 14.730469 85.933594 14.800781 85.960938 14.867188 C 85.976562 14.902344 85.988281 14.9375 86.003906 14.972656 C 86.019531 15.003906 86.035156 15.035156 86.050781 15.066406 C 86.085938 15.125 86.117188 15.1875 86.152344 15.242188 C 86.1875 15.296875 86.226562 15.355469 86.261719 15.40625 C 86.300781 15.457031 86.335938 15.503906 86.371094 15.550781 C 86.40625 15.597656 86.445312 15.644531 86.488281 15.6875 C 86.511719 15.714844 86.535156 15.738281 86.5625 15.761719 C 86.574219 15.773438 86.589844 15.785156 86.605469 15.792969 C 86.625 15.804688 86.648438 15.816406 86.664062 15.824219 C 86.699219 15.839844 86.726562 15.851562 86.757812 15.863281 C 86.777344 15.871094 86.800781 15.875 86.816406 15.882812 C 86.839844 15.890625 86.863281 15.894531 86.886719 15.898438 C 86.910156 15.902344 86.929688 15.90625 86.953125 15.910156 C 86.980469 15.914062 87.007812 15.914062 87.035156 15.917969 C 87.046875 15.917969 87.054688 15.917969 87.066406 15.917969 C 87.066406 15.917969 87.0625 15.917969 87.0625 15.917969 C 87.121094 15.921875 87.183594 15.917969 87.238281 15.914062 C 87.269531 15.910156 87.300781 15.910156 87.328125 15.90625 C 87.359375 15.898438 87.390625 15.894531 87.421875 15.890625 C 87.433594 15.886719 87.445312 15.882812 87.453125 15.882812 C 87.480469 15.875 87.507812 15.867188 87.535156 15.859375 C 87.5625 15.851562 87.589844 15.84375 87.617188 15.832031 C 87.636719 15.828125 87.65625 15.820312 87.675781 15.8125 C 87.695312 15.804688 87.714844 15.792969 87.738281 15.785156 C 87.777344 15.769531 87.820312 15.75 87.863281 15.726562 C 87.894531 15.707031 87.929688 15.6875 87.964844 15.667969 C 88 15.648438 88.035156 15.625 88.070312 15.597656 C 88.082031 15.589844 88.097656 15.582031 88.109375 15.570312 C 88.191406 15.511719 88.269531 15.445312 88.339844 15.378906 C 88.378906 15.34375 88.414062 15.308594 88.449219 15.269531 C 88.488281 15.234375 88.519531 15.195312 88.558594 15.15625 C 88.585938 15.121094 88.613281 15.085938 88.644531 15.046875 C 88.671875 15.007812 88.699219 14.96875 88.726562 14.929688 C 88.753906 14.882812 88.777344 14.839844 88.800781 14.800781 Z M 79.34375 16.214844 C 79.367188 16.199219 79.390625 16.179688 79.414062 16.164062 C 79.464844 16.128906 79.519531 16.09375 79.570312 16.058594 C 79.679688 15.988281 79.792969 15.925781 79.90625 15.863281 C 80.148438 15.738281 80.390625 15.621094 80.636719 15.503906 C 80.886719 15.386719 81.140625 15.269531 81.394531 15.15625 C 81.648438 15.042969 81.902344 14.929688 82.15625 14.820312 C 82.285156 14.765625 82.40625 14.714844 82.535156 14.660156 C 82.660156 14.605469 82.785156 14.554688 82.910156 14.503906 C 83.171875 14.402344 83.429688 14.308594 83.6875 14.214844 C 83.949219 14.125 84.207031 14.035156 84.464844 13.945312 C 84.597656 13.898438 84.726562 13.851562 84.859375 13.808594 C 84.988281 13.765625 85.117188 13.722656 85.25 13.679688 C 85.316406 13.660156 85.382812 13.640625 85.453125 13.625 C 85.484375 13.617188 85.519531 13.613281 85.554688 13.605469 C 85.558594 13.605469 85.5625 13.605469 85.566406 13.601562 C 85.566406 13.582031 85.570312 13.566406 85.570312 13.546875 C 85.574219 13.515625 85.578125 13.480469 85.585938 13.449219 C 85.578125 13.441406 85.574219 13.433594 85.566406 13.425781 C 85.558594 13.414062 85.550781 13.398438 85.539062 13.386719 C 85.511719 13.351562 85.480469 13.316406 85.453125 13.277344 C 85.390625 13.191406 85.332031 13.109375 85.269531 13.023438 C 85.269531 13.023438 85.269531 13.019531 85.265625 13.019531 C 85.261719 13.015625 85.261719 13.015625 85.261719 13.015625 C 85.261719 13.011719 85.257812 13.003906 85.253906 13.003906 C 85.121094 12.816406 84.988281 12.625 84.859375 12.433594 C 84.726562 12.234375 84.597656 12.035156 84.46875 11.835938 C 84.339844 11.636719 84.210938 11.445312 84.078125 11.25 C 83.945312 11.050781 83.808594 10.855469 83.671875 10.65625 C 83.59375 10.542969 83.511719 10.429688 83.433594 10.3125 C 83.421875 10.292969 83.40625 10.273438 83.390625 10.253906 C 83.390625 10.253906 83.390625 10.253906 83.394531 10.257812 C 83.394531 10.257812 83.390625 10.253906 83.390625 10.253906 C 83.273438 10.085938 83.148438 9.917969 83.03125 9.75 C 83.015625 9.730469 83.003906 9.707031 82.988281 9.6875 C 82.988281 9.6875 82.988281 9.6875 82.988281 9.683594 C 82.988281 9.683594 82.984375 9.683594 82.984375 9.679688 C 82.984375 9.679688 82.984375 9.679688 82.988281 9.683594 C 82.972656 9.664062 82.960938 9.640625 82.945312 9.621094 C 82.945312 9.621094 82.945312 9.621094 82.941406 9.617188 C 82.941406 9.617188 82.9375 9.617188 82.9375 9.613281 C 82.9375 9.609375 82.9375 9.605469 82.933594 9.605469 C 82.929688 9.601562 82.925781 9.597656 82.921875 9.59375 C 82.921875 9.59375 82.921875 9.589844 82.921875 9.589844 C 82.921875 9.589844 82.921875 9.585938 82.917969 9.585938 C 82.917969 9.585938 82.914062 9.585938 82.914062 9.582031 C 82.910156 9.574219 82.902344 9.566406 82.898438 9.558594 C 82.832031 9.460938 82.761719 9.363281 82.695312 9.269531 C 82.628906 9.171875 82.5625 9.078125 82.5 8.980469 C 82.378906 8.796875 82.261719 8.613281 82.136719 8.429688 C 82.089844 8.355469 82.039062 8.285156 81.992188 8.210938 C 81.964844 8.171875 81.9375 8.136719 81.910156 8.097656 C 81.902344 8.089844 81.898438 8.078125 81.890625 8.070312 C 81.882812 8.085938 81.875 8.101562 81.867188 8.113281 C 81.800781 8.257812 81.738281 8.40625 81.679688 8.554688 C 81.628906 8.703125 81.574219 8.847656 81.519531 8.992188 C 81.410156 9.292969 81.300781 9.59375 81.1875 9.898438 C 81.128906 10.058594 81.066406 10.21875 81.007812 10.378906 C 80.949219 10.53125 80.894531 10.6875 80.832031 10.839844 C 80.71875 11.140625 80.597656 11.4375 80.488281 11.742188 C 80.398438 11.992188 80.308594 12.242188 80.222656 12.492188 C 80.128906 12.753906 80.039062 13.019531 79.953125 13.28125 C 79.90625 13.429688 79.863281 13.574219 79.824219 13.71875 C 79.78125 13.867188 79.742188 14.015625 79.703125 14.164062 C 79.664062 14.316406 79.625 14.464844 79.589844 14.621094 C 79.558594 14.765625 79.523438 14.914062 79.496094 15.0625 C 79.449219 15.324219 79.40625 15.589844 79.382812 15.855469 C 79.367188 15.976562 79.355469 16.09375 79.34375 16.214844 Z M 92.683594 20.507812 C 92.703125 20.480469 92.71875 20.445312 92.734375 20.417969 C 92.730469 20.414062 92.726562 20.410156 92.722656 20.410156 C 92.660156 20.347656 92.605469 20.28125 92.546875 20.210938 C 92.480469 20.128906 92.414062 20.046875 92.347656 19.960938 C 92.210938 19.785156 92.078125 19.605469 91.945312 19.425781 C 91.878906 19.335938 91.808594 19.238281 91.742188 19.148438 C 91.675781 19.058594 91.613281 18.96875 91.550781 18.878906 C 91.421875 18.703125 91.292969 18.523438 91.160156 18.347656 C 91.09375 18.257812 91.023438 18.167969 90.957031 18.078125 C 90.890625 17.992188 90.820312 17.90625 90.757812 17.816406 C 90.621094 17.640625 90.488281 17.464844 90.347656 17.289062 C 90.203125 17.109375 90.054688 16.925781 89.90625 16.75 C 89.761719 16.570312 89.617188 16.394531 89.472656 16.21875 C 89.398438 16.125 89.328125 16.03125 89.253906 15.941406 C 89.183594 15.847656 89.109375 15.757812 89.039062 15.664062 C 88.972656 15.574219 88.902344 15.484375 88.835938 15.394531 C 88.800781 15.347656 88.769531 15.308594 88.734375 15.265625 C 88.71875 15.242188 88.699219 15.222656 88.679688 15.199219 C 88.660156 15.214844 88.648438 15.238281 88.628906 15.257812 C 88.605469 15.28125 88.582031 15.308594 88.558594 15.335938 C 88.53125 15.363281 88.503906 15.390625 88.476562 15.417969 C 88.449219 15.449219 88.417969 15.472656 88.390625 15.5 C 88.351562 15.535156 88.308594 15.570312 88.265625 15.601562 C 88.226562 15.636719 88.179688 15.667969 88.136719 15.699219 C 88.136719 15.699219 88.140625 15.695312 88.140625 15.695312 C 88.109375 15.714844 88.078125 15.738281 88.042969 15.757812 C 88.011719 15.777344 87.980469 15.796875 87.949219 15.8125 C 87.910156 15.832031 87.875 15.851562 87.835938 15.871094 C 87.808594 15.882812 87.773438 15.898438 87.742188 15.910156 C 87.660156 15.945312 87.570312 15.976562 87.480469 15.996094 C 87.464844 16 87.445312 16.007812 87.429688 16.007812 C 87.410156 16.011719 87.386719 16.015625 87.367188 16.019531 C 87.332031 16.027344 87.292969 16.03125 87.257812 16.035156 C 87.222656 16.039062 87.183594 16.039062 87.144531 16.042969 C 87.140625 16.042969 87.140625 16.042969 87.140625 16.042969 C 87.101562 16.042969 87.0625 16.039062 87.027344 16.039062 C 86.953125 16.035156 86.878906 16.023438 86.800781 16.007812 C 86.765625 15.996094 86.730469 15.988281 86.691406 15.976562 C 86.65625 15.964844 86.621094 15.945312 86.589844 15.929688 C 86.574219 15.921875 86.554688 15.914062 86.542969 15.90625 C 86.527344 15.894531 86.511719 15.886719 86.496094 15.871094 C 86.464844 15.847656 86.441406 15.824219 86.414062 15.792969 C 86.363281 15.742188 86.316406 15.683594 86.273438 15.625 C 86.226562 15.566406 86.179688 15.507812 86.140625 15.449219 C 86.097656 15.386719 86.058594 15.324219 86.019531 15.265625 C 85.980469 15.199219 85.941406 15.132812 85.910156 15.066406 C 85.894531 15.03125 85.878906 15 85.867188 14.964844 C 85.855469 14.933594 85.839844 14.898438 85.828125 14.863281 C 85.808594 14.816406 85.792969 14.765625 85.769531 14.714844 C 85.769531 14.714844 85.773438 14.714844 85.773438 14.714844 C 85.773438 14.710938 85.769531 14.710938 85.769531 14.707031 C 85.765625 14.703125 85.765625 14.695312 85.761719 14.691406 C 85.761719 14.691406 85.761719 14.691406 85.761719 14.695312 C 85.757812 14.6875 85.757812 14.679688 85.753906 14.671875 C 85.753906 14.667969 85.753906 14.667969 85.75 14.667969 C 85.722656 14.597656 85.699219 14.527344 85.679688 14.457031 C 85.65625 14.382812 85.636719 14.3125 85.621094 14.242188 C 85.613281 14.207031 85.605469 14.171875 85.601562 14.136719 C 85.59375 14.097656 85.585938 14.0625 85.582031 14.023438 C 85.574219 13.949219 85.566406 13.871094 85.566406 13.796875 C 85.566406 13.773438 85.566406 13.753906 85.566406 13.734375 C 85.558594 13.734375 85.554688 13.734375 85.542969 13.738281 C 85.417969 13.769531 85.292969 13.804688 85.167969 13.84375 C 85.035156 13.890625 84.902344 13.9375 84.769531 13.984375 C 84.507812 14.074219 84.246094 14.160156 83.984375 14.253906 C 83.746094 14.335938 83.511719 14.421875 83.273438 14.507812 C 83.152344 14.554688 83.03125 14.601562 82.910156 14.652344 C 82.78125 14.703125 82.652344 14.753906 82.523438 14.808594 C 82.265625 14.917969 82.007812 15.027344 81.753906 15.144531 C 81.5 15.257812 81.246094 15.371094 80.996094 15.484375 C 80.75 15.597656 80.503906 15.714844 80.257812 15.835938 C 80.175781 15.878906 80.089844 15.917969 80.003906 15.964844 C 80.003906 15.964844 80.003906 15.964844 80.007812 15.964844 C 80.007812 15.964844 80.003906 15.964844 80.003906 15.964844 C 80.003906 15.964844 80.003906 15.96875 80.003906 15.96875 C 79.910156 16.015625 79.820312 16.066406 79.730469 16.125 C 79.644531 16.175781 79.558594 16.226562 79.480469 16.285156 C 79.441406 16.3125 79.402344 16.339844 79.363281 16.371094 C 79.371094 16.390625 79.378906 16.402344 79.386719 16.417969 C 79.40625 16.457031 79.429688 16.492188 79.453125 16.523438 C 79.492188 16.582031 79.535156 16.632812 79.582031 16.683594 C 79.652344 16.757812 79.722656 16.824219 79.796875 16.886719 C 79.929688 16.996094 80.070312 17.09375 80.214844 17.183594 C 80.214844 17.183594 80.214844 17.183594 80.21875 17.183594 C 80.21875 17.183594 80.21875 17.1875 80.222656 17.1875 C 80.222656 17.1875 80.21875 17.1875 80.21875 17.183594 C 80.34375 17.265625 80.472656 17.339844 80.601562 17.414062 C 80.730469 17.484375 80.855469 17.554688 80.988281 17.625 C 81.125 17.699219 81.261719 17.769531 81.398438 17.839844 C 81.539062 17.910156 81.683594 17.980469 81.824219 18.050781 C 81.878906 18.078125 81.933594 18.101562 81.992188 18.132812 C 81.996094 18.136719 82 18.136719 82.007812 18.136719 C 82.015625 18.140625 82.023438 18.148438 82.035156 18.152344 C 82.328125 18.289062 82.621094 18.417969 82.917969 18.53125 C 83.027344 18.570312 83.136719 18.609375 83.25 18.652344 C 83.359375 18.691406 83.476562 18.726562 83.589844 18.765625 C 83.589844 18.765625 83.589844 18.765625 83.59375 18.765625 C 83.890625 18.863281 84.191406 18.957031 84.488281 19.058594 C 84.792969 19.160156 85.097656 19.265625 85.402344 19.382812 C 85.585938 19.449219 85.769531 19.519531 85.953125 19.589844 C 86.050781 19.625 86.144531 19.660156 86.242188 19.695312 C 86.339844 19.734375 86.441406 19.765625 86.535156 19.796875 C 86.867188 19.90625 87.207031 19.992188 87.546875 20.085938 C 87.871094 20.171875 88.199219 20.257812 88.523438 20.335938 C 88.84375 20.414062 89.167969 20.484375 89.492188 20.550781 C 89.640625 20.585938 89.792969 20.613281 89.941406 20.648438 C 90.117188 20.6875 90.292969 20.722656 90.464844 20.757812 C 90.59375 20.785156 90.714844 20.808594 90.84375 20.832031 C 90.960938 20.851562 91.074219 20.875 91.195312 20.890625 C 91.316406 20.90625 91.4375 20.917969 91.554688 20.921875 C 91.621094 20.925781 91.683594 20.925781 91.75 20.921875 C 91.808594 20.921875 91.871094 20.917969 91.933594 20.914062 C 91.972656 20.910156 92.007812 20.90625 92.042969 20.902344 C 92.082031 20.894531 92.125 20.886719 92.160156 20.882812 C 92.210938 20.871094 92.257812 20.855469 92.304688 20.839844 C 92.324219 20.832031 92.34375 20.824219 92.363281 20.820312 C 92.382812 20.8125 92.398438 20.800781 92.417969 20.792969 C 92.441406 20.777344 92.464844 20.765625 92.484375 20.75 C 92.503906 20.734375 92.527344 20.71875 92.546875 20.699219 C 92.570312 20.675781 92.59375 20.652344 92.617188 20.625 C 92.632812 20.578125 92.660156 20.546875 92.683594 20.507812 Z M 95.355469 12.425781 C 95.359375 12.386719 95.367188 12.347656 95.371094 12.304688 C 95.359375 12.308594 95.347656 12.3125 95.332031 12.316406 C 95.28125 12.335938 95.230469 12.359375 95.175781 12.378906 C 95.144531 12.390625 95.117188 12.402344 95.085938 12.414062 C 95.074219 12.417969 95.058594 12.425781 95.046875 12.429688 C 95.042969 12.429688 95.039062 12.429688 95.035156 12.429688 C 95.03125 12.433594 95.023438 12.4375 95.019531 12.4375 C 95.007812 12.441406 95 12.445312 94.992188 12.449219 C 94.75 12.539062 94.5 12.621094 94.25 12.699219 C 93.984375 12.78125 93.722656 12.855469 93.460938 12.929688 C 93.195312 13.007812 92.933594 13.085938 92.667969 13.160156 C 92.40625 13.234375 92.140625 13.308594 91.882812 13.386719 C 91.613281 13.46875 91.34375 13.550781 91.074219 13.632812 C 90.808594 13.710938 90.546875 13.792969 90.285156 13.882812 C 90.207031 13.910156 90.125 13.941406 90.046875 13.96875 C 90.050781 13.96875 90.050781 13.96875 90.054688 13.96875 C 89.804688 14.0625 89.554688 14.160156 89.3125 14.285156 C 89.269531 14.308594 89.226562 14.332031 89.183594 14.355469 C 89.164062 14.367188 89.140625 14.378906 89.121094 14.390625 C 89.113281 14.394531 89.105469 14.398438 89.097656 14.402344 C 89.082031 14.460938 89.0625 14.523438 89.039062 14.578125 C 89.011719 14.648438 88.984375 14.714844 88.949219 14.78125 C 88.917969 14.847656 88.878906 14.910156 88.839844 14.972656 C 88.816406 15.003906 88.796875 15.035156 88.773438 15.0625 C 88.765625 15.074219 88.761719 15.082031 88.753906 15.09375 C 88.769531 15.109375 88.785156 15.128906 88.804688 15.148438 C 88.839844 15.191406 88.875 15.234375 88.910156 15.273438 C 88.976562 15.363281 89.046875 15.457031 89.117188 15.546875 C 89.183594 15.636719 89.253906 15.730469 89.328125 15.820312 C 89.398438 15.910156 89.46875 16 89.539062 16.089844 C 89.6875 16.273438 89.835938 16.457031 89.988281 16.640625 C 90.132812 16.816406 90.277344 16.992188 90.417969 17.167969 C 90.558594 17.339844 90.695312 17.519531 90.828125 17.699219 C 90.898438 17.789062 90.964844 17.875 91.03125 17.960938 C 91.097656 18.046875 91.164062 18.136719 91.234375 18.226562 C 91.363281 18.402344 91.496094 18.582031 91.621094 18.761719 C 91.6875 18.851562 91.75 18.941406 91.816406 19.035156 C 91.882812 19.125 91.949219 19.21875 92.015625 19.308594 C 92.148438 19.492188 92.28125 19.667969 92.417969 19.84375 C 92.527344 19.984375 92.632812 20.125 92.753906 20.257812 C 92.765625 20.273438 92.78125 20.285156 92.789062 20.296875 C 92.800781 20.277344 92.808594 20.261719 92.816406 20.246094 C 92.820312 20.242188 92.820312 20.238281 92.824219 20.234375 C 92.871094 20.128906 92.921875 20.019531 92.960938 19.910156 C 93.011719 19.777344 93.0625 19.640625 93.113281 19.507812 C 93.167969 19.363281 93.21875 19.214844 93.269531 19.070312 C 93.320312 18.933594 93.371094 18.792969 93.417969 18.652344 C 93.4375 18.59375 93.453125 18.542969 93.472656 18.484375 C 93.472656 18.484375 93.472656 18.484375 93.472656 18.488281 C 93.472656 18.488281 93.472656 18.484375 93.472656 18.484375 C 93.472656 18.484375 93.472656 18.484375 93.476562 18.480469 C 93.476562 18.480469 93.476562 18.484375 93.476562 18.484375 C 93.523438 18.332031 93.570312 18.179688 93.613281 18.023438 C 93.65625 17.867188 93.699219 17.710938 93.742188 17.550781 C 93.78125 17.398438 93.828125 17.242188 93.871094 17.089844 C 93.917969 16.925781 93.964844 16.765625 94.011719 16.601562 C 94.101562 16.285156 94.199219 15.972656 94.296875 15.65625 C 94.347656 15.496094 94.398438 15.335938 94.445312 15.175781 C 94.492188 15.03125 94.539062 14.882812 94.589844 14.734375 C 94.679688 14.445312 94.78125 14.160156 94.886719 13.875 C 94.988281 13.59375 95.097656 13.308594 95.195312 13.023438 C 95.226562 12.921875 95.253906 12.820312 95.285156 12.71875 C 95.3125 12.625 95.335938 12.527344 95.355469 12.425781 Z M 82.941406 9.617188 C 82.945312 9.617188 82.945312 9.617188 82.941406 9.617188 C 82.945312 9.617188 82.941406 9.617188 82.941406 9.617188 C 82.945312 9.617188 82.945312 9.617188 82.941406 9.617188 Z M 82.941406 9.617188 " fill-opacity="1" fill-rule="nonzero"/></g></g></g><g clip-path="url(#d41b540127)"><g clip-path="url(#30f5681697)"><g clip-path="url(#75d4ced971)"><path fill="#19baa7" d="M 87.335938 12.867188 C 88.320312 11.660156 89.96875 11.363281 90.695312 12.726562 C 92.050781 15.261719 86.054688 17.234375 86.054688 17.234375 C 84.203125 14.417969 82.945312 12.105469 84.898438 11.003906 C 85.992188 10.382812 87.171875 11.371094 87.335938 12.867188 Z M 87.335938 12.867188 " fill-opacity="1" fill-rule="nonzero"/></g></g></g><g clip-path="url(#6b4dd6099f)"><path fill="#ffe799" d="M 2.054688 6.367188 C 2.621094 6.339844 3.191406 6.234375 3.753906 6.125 C 4.480469 5.980469 5.191406 5.828125 5.941406 5.949219 C 6.746094 6.078125 7.472656 6.382812 8.171875 6.78125 C 8.316406 6.859375 8.46875 6.917969 8.699219 7.023438 C 8.660156 6.375 8.386719 5.980469 8.054688 5.628906 C 6.917969 4.433594 5.550781 3.652344 3.898438 3.425781 C 2.972656 3.296875 2.070312 3.398438 1.285156 3.972656 C 0.707031 4.402344 0.472656 5.011719 0.660156 5.558594 C 0.835938 6.0625 1.351562 6.402344 2.054688 6.367188 Z M 2.054688 6.367188 " fill-opacity="1" fill-rule="nonzero"/></g><g clip-path="url(#a1b9ff8682)"><path fill="#ffe799" d="M 9.796875 6.210938 C 9.933594 6.34375 10.125 6.304688 10.164062 6.121094 C 10.203125 5.949219 10.210938 5.773438 10.195312 5.597656 C 10.125 4.863281 10.316406 4.210938 10.746094 3.613281 C 10.941406 3.339844 11.132812 3.058594 11.261719 2.75 C 11.386719 2.445312 11.484375 2.113281 11.492188 1.789062 C 11.507812 1.121094 10.949219 0.609375 10.242188 0.613281 C 9.871094 0.632812 9.527344 0.8125 9.257812 1.136719 C 8.996094 1.457031 8.847656 1.820312 8.8125 2.230469 C 8.679688 3.621094 9.074219 4.886719 9.714844 6.09375 C 9.738281 6.136719 9.765625 6.175781 9.796875 6.210938 Z M 9.796875 6.210938 " fill-opacity="1" fill-rule="nonzero"/></g><g clip-path="url(#10115ec1e2)"><g transform="matrix(1, 0, 0, 1, 47, 2)"><g clip-path="url(#d684255fff)"><g fill="#c7c7c7" fill-opacity="0.4"><g transform="translate(2.643568, 18.405377)"><g><path d="M 5.390625 -11.953125 C 5.660156 -11.734375 5.863281 -11.46875 6 -11.15625 C 6.132812 -10.832031 6.21875 -10.421875 6.25 -9.921875 C 6.3125 -9.078125 6.179688 -8.144531 5.859375 -7.125 C 5.523438 -6.113281 5.019531 -5.070312 4.34375 -4 C 4.25 -3.832031 4.171875 -3.691406 4.109375 -3.578125 C 4.023438 -3.441406 3.988281 -3.359375 4 -3.328125 C 4 -3.242188 4.085938 -3.117188 4.265625 -2.953125 C 4.441406 -2.773438 4.601562 -2.664062 4.75 -2.625 C 5.070312 -2.488281 5.410156 -2.507812 5.765625 -2.6875 C 6.117188 -2.851562 6.519531 -3.195312 6.96875 -3.71875 C 7.21875 -4.03125 7.390625 -4.21875 7.484375 -4.28125 C 7.566406 -4.351562 7.65625 -4.394531 7.75 -4.40625 C 7.875 -4.40625 8 -4.359375 8.125 -4.265625 C 8.226562 -4.179688 8.285156 -4.078125 8.296875 -3.953125 C 8.304688 -3.847656 8.238281 -3.695312 8.09375 -3.5 C 7.957031 -3.28125 7.757812 -3.023438 7.5 -2.734375 C 7.113281 -2.328125 6.722656 -2.015625 6.328125 -1.796875 C 5.921875 -1.585938 5.519531 -1.484375 5.125 -1.484375 C 4.832031 -1.484375 4.582031 -1.523438 4.375 -1.609375 C 4.164062 -1.703125 3.941406 -1.851562 3.703125 -2.0625 C 3.585938 -2.15625 3.492188 -2.234375 3.421875 -2.296875 L 3.28125 -2.40625 C 3.269531 -2.40625 3.226562 -2.359375 3.15625 -2.265625 C 3.0625 -2.179688 2.960938 -2.070312 2.859375 -1.9375 C 2.460938 -1.539062 2.109375 -1.242188 1.796875 -1.046875 C 1.472656 -0.847656 1.15625 -0.738281 0.84375 -0.71875 C 0.738281 -0.707031 0.628906 -0.707031 0.515625 -0.71875 C 0.410156 -0.726562 0.335938 -0.75 0.296875 -0.78125 C 0.046875 -0.882812 -0.140625 -1.046875 -0.265625 -1.265625 C -0.398438 -1.484375 -0.476562 -1.765625 -0.5 -2.109375 C -0.550781 -2.890625 -0.332031 -3.554688 0.15625 -4.109375 C 0.65625 -4.660156 1.222656 -4.867188 1.859375 -4.734375 C 1.941406 -4.710938 2.015625 -4.703125 2.078125 -4.703125 L 2.171875 -4.703125 C 2.179688 -4.710938 2.179688 -4.78125 2.171875 -4.90625 C 2.148438 -5.03125 2.117188 -5.171875 2.078125 -5.328125 C 1.828125 -6.453125 1.789062 -7.601562 1.96875 -8.78125 C 2.144531 -9.957031 2.476562 -10.847656 2.96875 -11.453125 C 3.15625 -11.691406 3.367188 -11.890625 3.609375 -12.046875 C 3.847656 -12.171875 4.085938 -12.25 4.328125 -12.28125 L 4.375 -12.28125 C 4.539062 -12.289062 4.707031 -12.269531 4.875 -12.21875 C 5.050781 -12.175781 5.222656 -12.085938 5.390625 -11.953125 Z M 3.828125 -10.84375 C 3.617188 -10.613281 3.441406 -10.289062 3.296875 -9.875 C 3.148438 -9.457031 3.046875 -8.96875 2.984375 -8.40625 C 2.921875 -8.039062 2.910156 -7.507812 2.953125 -6.8125 C 3.003906 -6.113281 3.082031 -5.578125 3.1875 -5.203125 C 3.21875 -5.054688 3.25 -4.929688 3.28125 -4.828125 C 3.3125 -4.710938 3.335938 -4.648438 3.359375 -4.640625 C 3.390625 -4.578125 3.441406 -4.582031 3.515625 -4.65625 C 3.585938 -4.738281 3.691406 -4.898438 3.828125 -5.140625 C 4.148438 -5.703125 4.414062 -6.253906 4.625 -6.796875 C 4.832031 -7.359375 4.992188 -7.914062 5.109375 -8.46875 C 5.203125 -8.882812 5.234375 -9.328125 5.203125 -9.796875 C 5.179688 -10.265625 5.117188 -10.601562 5.015625 -10.8125 C 4.929688 -10.957031 4.835938 -11.066406 4.734375 -11.140625 C 4.640625 -11.210938 4.539062 -11.25 4.4375 -11.25 C 4.34375 -11.238281 4.242188 -11.203125 4.140625 -11.140625 C 4.035156 -11.078125 3.929688 -10.976562 3.828125 -10.84375 Z M 1.375 -3.71875 C 1.164062 -3.65625 0.976562 -3.488281 0.8125 -3.21875 C 0.644531 -2.945312 0.554688 -2.660156 0.546875 -2.359375 C 0.535156 -2.046875 0.578125 -1.851562 0.671875 -1.78125 C 0.765625 -1.71875 0.9375 -1.757812 1.1875 -1.90625 C 1.351562 -2 1.566406 -2.164062 1.828125 -2.40625 C 2.085938 -2.664062 2.238281 -2.835938 2.28125 -2.921875 C 2.332031 -3.066406 2.25 -3.242188 2.03125 -3.453125 C 1.8125 -3.660156 1.609375 -3.75 1.421875 -3.71875 Z M 1.375 -3.71875 "/></g></g></g><g fill="#c7c7c7" fill-opacity="0.4"><g transform="translate(10.251476, 17.921717)"><g><path d="M 4.0625 -5 C 4.113281 -4.90625 4.164062 -4.84375 4.21875 -4.8125 C 4.269531 -4.78125 4.347656 -4.753906 4.453125 -4.734375 C 4.585938 -4.734375 4.707031 -4.679688 4.8125 -4.578125 C 4.90625 -4.484375 4.957031 -4.378906 4.96875 -4.265625 C 4.96875 -4.234375 4.957031 -4.175781 4.9375 -4.09375 C 4.90625 -3.976562 4.875 -3.867188 4.84375 -3.765625 C 4.738281 -3.503906 4.648438 -3.226562 4.578125 -2.9375 C 4.503906 -2.65625 4.472656 -2.453125 4.484375 -2.328125 C 4.484375 -2.265625 4.488281 -2.21875 4.5 -2.1875 C 4.53125 -2.164062 4.566406 -2.15625 4.609375 -2.15625 C 4.660156 -2.164062 4.800781 -2.273438 5.03125 -2.484375 C 5.28125 -2.703125 5.550781 -2.960938 5.84375 -3.265625 C 6.007812 -3.429688 6.171875 -3.59375 6.328125 -3.75 L 6.796875 -4.265625 C 6.953125 -4.453125 7.132812 -4.460938 7.34375 -4.296875 C 7.457031 -4.191406 7.519531 -4.070312 7.53125 -3.9375 C 7.53125 -3.863281 7.507812 -3.789062 7.46875 -3.71875 C 7.28125 -3.414062 6.976562 -3.046875 6.5625 -2.609375 C 6.144531 -2.160156 5.859375 -1.851562 5.703125 -1.6875 C 5.441406 -1.425781 5.1875 -1.238281 4.9375 -1.125 C 4.78125 -1.0625 4.632812 -1.03125 4.5 -1.03125 C 4.414062 -1.019531 4.332031 -1.023438 4.25 -1.046875 C 4.070312 -1.078125 3.898438 -1.191406 3.734375 -1.390625 C 3.578125 -1.597656 3.492188 -1.796875 3.484375 -1.984375 C 3.484375 -2.035156 3.472656 -2.078125 3.453125 -2.109375 C 3.441406 -2.140625 3.429688 -2.160156 3.421875 -2.171875 C 3.398438 -2.179688 3.347656 -2.160156 3.265625 -2.109375 C 3.191406 -2.066406 3.101562 -2.007812 3 -1.9375 C 2.113281 -1.257812 1.316406 -0.953125 0.609375 -1.015625 C -0.0859375 -1.097656 -0.457031 -1.523438 -0.5 -2.296875 C -0.519531 -2.578125 -0.492188 -2.859375 -0.421875 -3.140625 C -0.347656 -3.429688 -0.234375 -3.707031 -0.078125 -3.96875 C 0.203125 -4.476562 0.570312 -4.910156 1.03125 -5.265625 C 1.5 -5.617188 1.984375 -5.816406 2.484375 -5.859375 C 2.796875 -5.867188 3.097656 -5.800781 3.390625 -5.65625 C 3.671875 -5.5 3.894531 -5.28125 4.0625 -5 Z M 2.4375 -4.796875 C 2.21875 -4.765625 2.007812 -4.675781 1.8125 -4.53125 C 1.601562 -4.382812 1.40625 -4.203125 1.21875 -3.984375 C 0.945312 -3.648438 0.742188 -3.289062 0.609375 -2.90625 C 0.484375 -2.5 0.488281 -2.238281 0.625 -2.125 C 0.675781 -2.039062 0.8125 -2.023438 1.03125 -2.078125 C 1.238281 -2.128906 1.46875 -2.226562 1.71875 -2.375 C 1.988281 -2.519531 2.25 -2.691406 2.5 -2.890625 C 2.75 -3.078125 2.988281 -3.289062 3.21875 -3.53125 C 3.289062 -3.601562 3.40625 -3.722656 3.5625 -3.890625 C 3.507812 -3.972656 3.425781 -4.085938 3.3125 -4.234375 C 3.144531 -4.460938 3.015625 -4.617188 2.921875 -4.703125 C 2.816406 -4.773438 2.695312 -4.8125 2.5625 -4.8125 L 2.5 -4.796875 Z M 2.4375 -4.796875 "/></g></g></g><g fill="#c7c7c7" fill-opacity="0.4"><g transform="translate(17.240136, 17.477425)"><g><path d="M 1.25 1.15625 C 1.050781 1.082031 0.828125 0.929688 0.578125 0.703125 C 0.328125 0.429688 0.164062 0.1875 0.09375 -0.03125 C -0.125 -0.601562 -0.238281 -1.375 -0.25 -2.34375 C -0.238281 -3.289062 -0.128906 -4.53125 0.078125 -6.0625 C 0.117188 -6.332031 0.15625 -6.585938 0.1875 -6.828125 C 0.207031 -7.035156 0.21875 -7.15625 0.21875 -7.1875 C 0.226562 -7.226562 0.195312 -7.253906 0.125 -7.265625 C 0.0625 -7.285156 -0.0625 -7.304688 -0.25 -7.328125 C -0.539062 -7.335938 -0.800781 -7.382812 -1.03125 -7.46875 C -1.269531 -7.550781 -1.488281 -7.664062 -1.6875 -7.8125 C -1.84375 -7.9375 -1.953125 -8.050781 -2.015625 -8.15625 C -2.054688 -8.226562 -2.078125 -8.296875 -2.078125 -8.359375 C -2.085938 -8.410156 -2.085938 -8.457031 -2.078125 -8.5 C -2.023438 -8.695312 -1.898438 -8.816406 -1.703125 -8.859375 C -1.515625 -8.910156 -1.328125 -8.867188 -1.140625 -8.734375 C -0.984375 -8.609375 -0.820312 -8.523438 -0.65625 -8.484375 C -0.488281 -8.421875 -0.289062 -8.390625 -0.0625 -8.390625 L 0.25 -8.40625 C 0.34375 -8.425781 0.398438 -8.441406 0.421875 -8.453125 C 0.429688 -8.472656 0.457031 -8.554688 0.5 -8.703125 C 0.53125 -8.867188 0.570312 -9.050781 0.625 -9.25 C 0.800781 -10.113281 0.929688 -10.71875 1.015625 -11.0625 C 1.109375 -11.414062 1.203125 -11.628906 1.296875 -11.703125 C 1.410156 -11.796875 1.515625 -11.851562 1.609375 -11.875 C 1.617188 -11.875 1.628906 -11.867188 1.640625 -11.859375 C 1.742188 -11.859375 1.859375 -11.804688 1.984375 -11.703125 C 2.097656 -11.609375 2.148438 -11.492188 2.140625 -11.359375 C 2.117188 -11.222656 2.023438 -10.765625 1.859375 -9.984375 C 1.785156 -9.648438 1.726562 -9.363281 1.6875 -9.125 C 1.65625 -8.914062 1.644531 -8.800781 1.65625 -8.78125 C 1.675781 -8.769531 1.738281 -8.769531 1.84375 -8.78125 C 1.96875 -8.789062 2.097656 -8.8125 2.234375 -8.84375 C 2.710938 -8.945312 3.191406 -9.015625 3.671875 -9.046875 C 4.171875 -9.066406 4.585938 -9.046875 4.921875 -8.984375 C 5.128906 -8.941406 5.234375 -8.742188 5.234375 -8.390625 C 5.234375 -8.046875 5.082031 -7.894531 4.78125 -7.9375 C 4.425781 -7.988281 4.019531 -8 3.5625 -7.96875 C 3.113281 -7.945312 2.65625 -7.878906 2.1875 -7.765625 C 1.976562 -7.710938 1.800781 -7.664062 1.65625 -7.625 C 1.5 -7.582031 1.414062 -7.550781 1.40625 -7.53125 C 1.375 -7.5 1.3125 -7.1875 1.21875 -6.59375 C 1.125 -6.007812 1.039062 -5.375 0.96875 -4.6875 C 0.914062 -4.300781 0.878906 -3.9375 0.859375 -3.59375 C 0.847656 -3.25 0.835938 -2.847656 0.828125 -2.390625 C 0.828125 -1.816406 0.835938 -1.441406 0.859375 -1.265625 C 0.867188 -1.085938 0.90625 -0.898438 0.96875 -0.703125 C 1.101562 -0.316406 1.273438 -0.0546875 1.484375 0.078125 C 1.691406 0.234375 1.953125 0.265625 2.265625 0.171875 C 2.753906 0.046875 3.3125 -0.367188 3.9375 -1.078125 C 4.582031 -1.785156 5.179688 -2.648438 5.734375 -3.671875 C 5.828125 -3.847656 5.925781 -4 6.03125 -4.125 C 6.125 -4.269531 6.1875 -4.351562 6.21875 -4.375 C 6.375 -4.476562 6.539062 -4.488281 6.71875 -4.40625 C 6.882812 -4.332031 6.972656 -4.207031 6.984375 -4.03125 L 7 -4 C 7 -3.820312 6.867188 -3.503906 6.609375 -3.046875 C 6.335938 -2.578125 6.023438 -2.085938 5.671875 -1.578125 C 5.492188 -1.304688 5.296875 -1.050781 5.078125 -0.8125 C 4.878906 -0.5625 4.691406 -0.335938 4.515625 -0.140625 C 4.222656 0.148438 3.960938 0.382812 3.734375 0.5625 C 3.492188 0.75 3.242188 0.898438 2.984375 1.015625 C 2.796875 1.109375 2.644531 1.164062 2.53125 1.1875 C 2.457031 1.226562 2.34375 1.253906 2.1875 1.265625 C 2.132812 1.265625 2.085938 1.253906 2.046875 1.234375 C 1.867188 1.242188 1.707031 1.242188 1.5625 1.234375 C 1.445312 1.234375 1.34375 1.207031 1.25 1.15625 Z M 1.25 1.15625 "/></g></g></g><g fill="#c7c7c7" fill-opacity="0.4"><g transform="translate(23.574162, 17.074751)"><g><path d="M 3.125 -5.234375 C 3.195312 -5.097656 3.238281 -4.914062 3.25 -4.6875 C 3.25 -4.445312 3.21875 -4.238281 3.15625 -4.0625 C 3.03125 -3.75 2.796875 -3.445312 2.453125 -3.15625 C 2.097656 -2.863281 1.707031 -2.648438 1.28125 -2.515625 C 0.988281 -2.441406 0.828125 -2.394531 0.796875 -2.375 C 0.765625 -2.34375 0.765625 -2.265625 0.796875 -2.140625 C 0.898438 -1.734375 1.109375 -1.441406 1.421875 -1.265625 C 1.753906 -1.066406 2.125 -1.023438 2.53125 -1.140625 C 3.070312 -1.265625 3.617188 -1.585938 4.171875 -2.109375 C 4.710938 -2.617188 5.222656 -3.28125 5.703125 -4.09375 C 5.703125 -4.101562 5.707031 -4.117188 5.71875 -4.140625 C 5.71875 -4.148438 5.726562 -4.160156 5.75 -4.171875 C 5.8125 -4.296875 5.957031 -4.351562 6.1875 -4.34375 C 6.394531 -4.332031 6.546875 -4.253906 6.640625 -4.109375 C 6.671875 -4.054688 6.691406 -3.988281 6.703125 -3.90625 L 6.703125 -3.875 C 6.703125 -3.769531 6.664062 -3.660156 6.59375 -3.546875 C 6.132812 -2.742188 5.613281 -2.054688 5.03125 -1.484375 C 4.445312 -0.921875 3.859375 -0.519531 3.265625 -0.28125 C 3.035156 -0.1875 2.769531 -0.113281 2.46875 -0.0625 C 2.34375 -0.0390625 2.226562 -0.03125 2.125 -0.03125 C 1.957031 -0.0195312 1.816406 -0.03125 1.703125 -0.0625 C 1.046875 -0.144531 0.53125 -0.472656 0.15625 -1.046875 C -0.132812 -1.472656 -0.296875 -1.96875 -0.328125 -2.53125 C -0.335938 -2.707031 -0.34375 -2.894531 -0.34375 -3.09375 C -0.28125 -3.863281 -0.046875 -4.519531 0.359375 -5.0625 C 0.773438 -5.582031 1.269531 -5.863281 1.84375 -5.90625 C 2.101562 -5.925781 2.34375 -5.867188 2.5625 -5.734375 C 2.800781 -5.617188 2.988281 -5.453125 3.125 -5.234375 Z M 0.8125 -3.65625 C 0.8125 -3.601562 0.816406 -3.570312 0.828125 -3.5625 C 0.835938 -3.539062 0.882812 -3.535156 0.96875 -3.546875 C 1.019531 -3.546875 1.097656 -3.570312 1.203125 -3.625 C 1.304688 -3.644531 1.398438 -3.691406 1.484375 -3.765625 C 1.796875 -3.910156 2.007812 -4.101562 2.125 -4.34375 C 2.25 -4.59375 2.226562 -4.757812 2.0625 -4.84375 L 1.953125 -4.859375 L 1.84375 -4.859375 C 1.65625 -4.835938 1.457031 -4.703125 1.25 -4.453125 C 1.039062 -4.234375 0.894531 -3.96875 0.8125 -3.65625 Z M 0.8125 -3.65625 "/></g></g></g><g clip-path="url(#3c56e5f269)"><g fill="#f4abc4" fill-opacity="1"><g transform="translate(1.791965, 17.65558)"><g><path d="M 5.390625 -11.953125 C 5.660156 -11.734375 5.863281 -11.46875 6 -11.15625 C 6.132812 -10.832031 6.21875 -10.421875 6.25 -9.921875 C 6.3125 -9.078125 6.179688 -8.144531 5.859375 -7.125 C 5.523438 -6.113281 5.019531 -5.070312 4.34375 -4 C 4.25 -3.832031 4.171875 -3.691406 4.109375 -3.578125 C 4.023438 -3.441406 3.988281 -3.359375 4 -3.328125 C 4 -3.242188 4.085938 -3.117188 4.265625 -2.953125 C 4.441406 -2.773438 4.601562 -2.664062 4.75 -2.625 C 5.070312 -2.488281 5.410156 -2.507812 5.765625 -2.6875 C 6.117188 -2.851562 6.519531 -3.195312 6.96875 -3.71875 C 7.21875 -4.03125 7.390625 -4.21875 7.484375 -4.28125 C 7.566406 -4.351562 7.65625 -4.394531 7.75 -4.40625 C 7.875 -4.40625 8 -4.359375 8.125 -4.265625 C 8.226562 -4.179688 8.285156 -4.078125 8.296875 -3.953125 C 8.304688 -3.847656 8.238281 -3.695312 8.09375 -3.5 C 7.957031 -3.28125 7.757812 -3.023438 7.5 -2.734375 C 7.113281 -2.328125 6.722656 -2.015625 6.328125 -1.796875 C 5.921875 -1.585938 5.519531 -1.484375 5.125 -1.484375 C 4.832031 -1.484375 4.582031 -1.523438 4.375 -1.609375 C 4.164062 -1.703125 3.941406 -1.851562 3.703125 -2.0625 C 3.585938 -2.15625 3.492188 -2.234375 3.421875 -2.296875 L 3.28125 -2.40625 C 3.269531 -2.40625 3.226562 -2.359375 3.15625 -2.265625 C 3.0625 -2.179688 2.960938 -2.070312 2.859375 -1.9375 C 2.460938 -1.539062 2.109375 -1.242188 1.796875 -1.046875 C 1.472656 -0.847656 1.15625 -0.738281 0.84375 -0.71875 C 0.738281 -0.707031 0.628906 -0.707031 0.515625 -0.71875 C 0.410156 -0.726562 0.335938 -0.75 0.296875 -0.78125 C 0.046875 -0.882812 -0.140625 -1.046875 -0.265625 -1.265625 C -0.398438 -1.484375 -0.476562 -1.765625 -0.5 -2.109375 C -0.550781 -2.890625 -0.332031 -3.554688 0.15625 -4.109375 C 0.65625 -4.660156 1.222656 -4.867188 1.859375 -4.734375 C 1.941406 -4.710938 2.015625 -4.703125 2.078125 -4.703125 L 2.171875 -4.703125 C 2.179688 -4.710938 2.179688 -4.78125 2.171875 -4.90625 C 2.148438 -5.03125 2.117188 -5.171875 2.078125 -5.328125 C 1.828125 -6.453125 1.789062 -7.601562 1.96875 -8.78125 C 2.144531 -9.957031 2.476562 -10.847656 2.96875 -11.453125 C 3.15625 -11.691406 3.367188 -11.890625 3.609375 -12.046875 C 3.847656 -12.171875 4.085938 -12.25 4.328125 -12.28125 L 4.375 -12.28125 C 4.539062 -12.289062 4.707031 -12.269531 4.875 -12.21875 C 5.050781 -12.175781 5.222656 -12.085938 5.390625 -11.953125 Z M 3.828125 -10.84375 C 3.617188 -10.613281 3.441406 -10.289062 3.296875 -9.875 C 3.148438 -9.457031 3.046875 -8.96875 2.984375 -8.40625 C 2.921875 -8.039062 2.910156 -7.507812 2.953125 -6.8125 C 3.003906 -6.113281 3.082031 -5.578125 3.1875 -5.203125 C 3.21875 -5.054688 3.25 -4.929688 3.28125 -4.828125 C 3.3125 -4.710938 3.335938 -4.648438 3.359375 -4.640625 C 3.390625 -4.578125 3.441406 -4.582031 3.515625 -4.65625 C 3.585938 -4.738281 3.691406 -4.898438 3.828125 -5.140625 C 4.148438 -5.703125 4.414062 -6.253906 4.625 -6.796875 C 4.832031 -7.359375 4.992188 -7.914062 5.109375 -8.46875 C 5.203125 -8.882812 5.234375 -9.328125 5.203125 -9.796875 C 5.179688 -10.265625 5.117188 -10.601562 5.015625 -10.8125 C 4.929688 -10.957031 4.835938 -11.066406 4.734375 -11.140625 C 4.640625 -11.210938 4.539062 -11.25 4.4375 -11.25 C 4.34375 -11.238281 4.242188 -11.203125 4.140625 -11.140625 C 4.035156 -11.078125 3.929688 -10.976562 3.828125 -10.84375 Z M 1.375 -3.71875 C 1.164062 -3.65625 0.976562 -3.488281 0.8125 -3.21875 C 0.644531 -2.945312 0.554688 -2.660156 0.546875 -2.359375 C 0.535156 -2.046875 0.578125 -1.851562 0.671875 -1.78125 C 0.765625 -1.71875 0.9375 -1.757812 1.1875 -1.90625 C 1.351562 -2 1.566406 -2.164062 1.828125 -2.40625 C 2.085938 -2.664062 2.238281 -2.835938 2.28125 -2.921875 C 2.332031 -3.066406 2.25 -3.242188 2.03125 -3.453125 C 1.8125 -3.660156 1.609375 -3.75 1.421875 -3.71875 Z M 1.375 -3.71875 "/></g></g></g></g><g fill="#f4abc4" fill-opacity="1"><g transform="translate(9.399873, 17.17192)"><g><path d="M 4.0625 -5 C 4.113281 -4.90625 4.164062 -4.84375 4.21875 -4.8125 C 4.269531 -4.78125 4.347656 -4.753906 4.453125 -4.734375 C 4.585938 -4.734375 4.707031 -4.679688 4.8125 -4.578125 C 4.90625 -4.484375 4.957031 -4.378906 4.96875 -4.265625 C 4.96875 -4.234375 4.957031 -4.175781 4.9375 -4.09375 C 4.90625 -3.976562 4.875 -3.867188 4.84375 -3.765625 C 4.738281 -3.503906 4.648438 -3.226562 4.578125 -2.9375 C 4.503906 -2.65625 4.472656 -2.453125 4.484375 -2.328125 C 4.484375 -2.265625 4.488281 -2.21875 4.5 -2.1875 C 4.53125 -2.164062 4.566406 -2.15625 4.609375 -2.15625 C 4.660156 -2.164062 4.800781 -2.273438 5.03125 -2.484375 C 5.28125 -2.703125 5.550781 -2.960938 5.84375 -3.265625 C 6.007812 -3.429688 6.171875 -3.59375 6.328125 -3.75 L 6.796875 -4.265625 C 6.953125 -4.453125 7.132812 -4.460938 7.34375 -4.296875 C 7.457031 -4.191406 7.519531 -4.070312 7.53125 -3.9375 C 7.53125 -3.863281 7.507812 -3.789062 7.46875 -3.71875 C 7.28125 -3.414062 6.976562 -3.046875 6.5625 -2.609375 C 6.144531 -2.160156 5.859375 -1.851562 5.703125 -1.6875 C 5.441406 -1.425781 5.1875 -1.238281 4.9375 -1.125 C 4.78125 -1.0625 4.632812 -1.03125 4.5 -1.03125 C 4.414062 -1.019531 4.332031 -1.023438 4.25 -1.046875 C 4.070312 -1.078125 3.898438 -1.191406 3.734375 -1.390625 C 3.578125 -1.597656 3.492188 -1.796875 3.484375 -1.984375 C 3.484375 -2.035156 3.472656 -2.078125 3.453125 -2.109375 C 3.441406 -2.140625 3.429688 -2.160156 3.421875 -2.171875 C 3.398438 -2.179688 3.347656 -2.160156 3.265625 -2.109375 C 3.191406 -2.066406 3.101562 -2.007812 3 -1.9375 C 2.113281 -1.257812 1.316406 -0.953125 0.609375 -1.015625 C -0.0859375 -1.097656 -0.457031 -1.523438 -0.5 -2.296875 C -0.519531 -2.578125 -0.492188 -2.859375 -0.421875 -3.140625 C -0.347656 -3.429688 -0.234375 -3.707031 -0.078125 -3.96875 C 0.203125 -4.476562 0.570312 -4.910156 1.03125 -5.265625 C 1.5 -5.617188 1.984375 -5.816406 2.484375 -5.859375 C 2.796875 -5.867188 3.097656 -5.800781 3.390625 -5.65625 C 3.671875 -5.5 3.894531 -5.28125 4.0625 -5 Z M 2.4375 -4.796875 C 2.21875 -4.765625 2.007812 -4.675781 1.8125 -4.53125 C 1.601562 -4.382812 1.40625 -4.203125 1.21875 -3.984375 C 0.945312 -3.648438 0.742188 -3.289062 0.609375 -2.90625 C 0.484375 -2.5 0.488281 -2.238281 0.625 -2.125 C 0.675781 -2.039062 0.8125 -2.023438 1.03125 -2.078125 C 1.238281 -2.128906 1.46875 -2.226562 1.71875 -2.375 C 1.988281 -2.519531 2.25 -2.691406 2.5 -2.890625 C 2.75 -3.078125 2.988281 -3.289062 3.21875 -3.53125 C 3.289062 -3.601562 3.40625 -3.722656 3.5625 -3.890625 C 3.507812 -3.972656 3.425781 -4.085938 3.3125 -4.234375 C 3.144531 -4.460938 3.015625 -4.617188 2.921875 -4.703125 C 2.816406 -4.773438 2.695312 -4.8125 2.5625 -4.8125 L 2.5 -4.796875 Z M 2.4375 -4.796875 "/></g></g></g><g fill="#f4abc4" fill-opacity="1"><g transform="translate(16.388533, 16.727629)"><g><path d="M 1.25 1.15625 C 1.050781 1.082031 0.828125 0.929688 0.578125 0.703125 C 0.328125 0.429688 0.164062 0.1875 0.09375 -0.03125 C -0.125 -0.601562 -0.238281 -1.375 -0.25 -2.34375 C -0.238281 -3.289062 -0.128906 -4.53125 0.078125 -6.0625 C 0.117188 -6.332031 0.15625 -6.585938 0.1875 -6.828125 C 0.207031 -7.035156 0.21875 -7.15625 0.21875 -7.1875 C 0.226562 -7.226562 0.195312 -7.253906 0.125 -7.265625 C 0.0625 -7.285156 -0.0625 -7.304688 -0.25 -7.328125 C -0.539062 -7.335938 -0.800781 -7.382812 -1.03125 -7.46875 C -1.269531 -7.550781 -1.488281 -7.664062 -1.6875 -7.8125 C -1.84375 -7.9375 -1.953125 -8.050781 -2.015625 -8.15625 C -2.054688 -8.226562 -2.078125 -8.296875 -2.078125 -8.359375 C -2.085938 -8.410156 -2.085938 -8.457031 -2.078125 -8.5 C -2.023438 -8.695312 -1.898438 -8.816406 -1.703125 -8.859375 C -1.515625 -8.910156 -1.328125 -8.867188 -1.140625 -8.734375 C -0.984375 -8.609375 -0.820312 -8.523438 -0.65625 -8.484375 C -0.488281 -8.421875 -0.289062 -8.390625 -0.0625 -8.390625 L 0.25 -8.40625 C 0.34375 -8.425781 0.398438 -8.441406 0.421875 -8.453125 C 0.429688 -8.472656 0.457031 -8.554688 0.5 -8.703125 C 0.53125 -8.867188 0.570312 -9.050781 0.625 -9.25 C 0.800781 -10.113281 0.929688 -10.71875 1.015625 -11.0625 C 1.109375 -11.414062 1.203125 -11.628906 1.296875 -11.703125 C 1.410156 -11.796875 1.515625 -11.851562 1.609375 -11.875 C 1.617188 -11.875 1.628906 -11.867188 1.640625 -11.859375 C 1.742188 -11.859375 1.859375 -11.804688 1.984375 -11.703125 C 2.097656 -11.609375 2.148438 -11.492188 2.140625 -11.359375 C 2.117188 -11.222656 2.023438 -10.765625 1.859375 -9.984375 C 1.785156 -9.648438 1.726562 -9.363281 1.6875 -9.125 C 1.65625 -8.914062 1.644531 -8.800781 1.65625 -8.78125 C 1.675781 -8.769531 1.738281 -8.769531 1.84375 -8.78125 C 1.96875 -8.789062 2.097656 -8.8125 2.234375 -8.84375 C 2.710938 -8.945312 3.191406 -9.015625 3.671875 -9.046875 C 4.171875 -9.066406 4.585938 -9.046875 4.921875 -8.984375 C 5.128906 -8.941406 5.234375 -8.742188 5.234375 -8.390625 C 5.234375 -8.046875 5.082031 -7.894531 4.78125 -7.9375 C 4.425781 -7.988281 4.019531 -8 3.5625 -7.96875 C 3.113281 -7.945312 2.65625 -7.878906 2.1875 -7.765625 C 1.976562 -7.710938 1.800781 -7.664062 1.65625 -7.625 C 1.5 -7.582031 1.414062 -7.550781 1.40625 -7.53125 C 1.375 -7.5 1.3125 -7.1875 1.21875 -6.59375 C 1.125 -6.007812 1.039062 -5.375 0.96875 -4.6875 C 0.914062 -4.300781 0.878906 -3.9375 0.859375 -3.59375 C 0.847656 -3.25 0.835938 -2.847656 0.828125 -2.390625 C 0.828125 -1.816406 0.835938 -1.441406 0.859375 -1.265625 C 0.867188 -1.085938 0.90625 -0.898438 0.96875 -0.703125 C 1.101562 -0.316406 1.273438 -0.0546875 1.484375 0.078125 C 1.691406 0.234375 1.953125 0.265625 2.265625 0.171875 C 2.753906 0.046875 3.3125 -0.367188 3.9375 -1.078125 C 4.582031 -1.785156 5.179688 -2.648438 5.734375 -3.671875 C 5.828125 -3.847656 5.925781 -4 6.03125 -4.125 C 6.125 -4.269531 6.1875 -4.351562 6.21875 -4.375 C 6.375 -4.476562 6.539062 -4.488281 6.71875 -4.40625 C 6.882812 -4.332031 6.972656 -4.207031 6.984375 -4.03125 L 7 -4 C 7 -3.820312 6.867188 -3.503906 6.609375 -3.046875 C 6.335938 -2.578125 6.023438 -2.085938 5.671875 -1.578125 C 5.492188 -1.304688 5.296875 -1.050781 5.078125 -0.8125 C 4.878906 -0.5625 4.691406 -0.335938 4.515625 -0.140625 C 4.222656 0.148438 3.960938 0.382812 3.734375 0.5625 C 3.492188 0.75 3.242188 0.898438 2.984375 1.015625 C 2.796875 1.109375 2.644531 1.164062 2.53125 1.1875 C 2.457031 1.226562 2.34375 1.253906 2.1875 1.265625 C 2.132812 1.265625 2.085938 1.253906 2.046875 1.234375 C 1.867188 1.242188 1.707031 1.242188 1.5625 1.234375 C 1.445312 1.234375 1.34375 1.207031 1.25 1.15625 Z M 1.25 1.15625 "/></g></g></g><g fill="#f4abc4" fill-opacity="1"><g transform="translate(22.722559, 16.324954)"><g><path d="M 3.125 -5.234375 C 3.195312 -5.097656 3.238281 -4.914062 3.25 -4.6875 C 3.25 -4.445312 3.21875 -4.238281 3.15625 -4.0625 C 3.03125 -3.75 2.796875 -3.445312 2.453125 -3.15625 C 2.097656 -2.863281 1.707031 -2.648438 1.28125 -2.515625 C 0.988281 -2.441406 0.828125 -2.394531 0.796875 -2.375 C 0.765625 -2.34375 0.765625 -2.265625 0.796875 -2.140625 C 0.898438 -1.734375 1.109375 -1.441406 1.421875 -1.265625 C 1.753906 -1.066406 2.125 -1.023438 2.53125 -1.140625 C 3.070312 -1.265625 3.617188 -1.585938 4.171875 -2.109375 C 4.710938 -2.617188 5.222656 -3.28125 5.703125 -4.09375 C 5.703125 -4.101562 5.707031 -4.117188 5.71875 -4.140625 C 5.71875 -4.148438 5.726562 -4.160156 5.75 -4.171875 C 5.8125 -4.296875 5.957031 -4.351562 6.1875 -4.34375 C 6.394531 -4.332031 6.546875 -4.253906 6.640625 -4.109375 C 6.671875 -4.054688 6.691406 -3.988281 6.703125 -3.90625 L 6.703125 -3.875 C 6.703125 -3.769531 6.664062 -3.660156 6.59375 -3.546875 C 6.132812 -2.742188 5.613281 -2.054688 5.03125 -1.484375 C 4.445312 -0.921875 3.859375 -0.519531 3.265625 -0.28125 C 3.035156 -0.1875 2.769531 -0.113281 2.46875 -0.0625 C 2.34375 -0.0390625 2.226562 -0.03125 2.125 -0.03125 C 1.957031 -0.0195312 1.816406 -0.03125 1.703125 -0.0625 C 1.046875 -0.144531 0.53125 -0.472656 0.15625 -1.046875 C -0.132812 -1.472656 -0.296875 -1.96875 -0.328125 -2.53125 C -0.335938 -2.707031 -0.34375 -2.894531 -0.34375 -3.09375 C -0.28125 -3.863281 -0.046875 -4.519531 0.359375 -5.0625 C 0.773438 -5.582031 1.269531 -5.863281 1.84375 -5.90625 C 2.101562 -5.925781 2.34375 -5.867188 2.5625 -5.734375 C 2.800781 -5.617188 2.988281 -5.453125 3.125 -5.234375 Z M 0.8125 -3.65625 C 0.8125 -3.601562 0.816406 -3.570312 0.828125 -3.5625 C 0.835938 -3.539062 0.882812 -3.535156 0.96875 -3.546875 C 1.019531 -3.546875 1.097656 -3.570312 1.203125 -3.625 C 1.304688 -3.644531 1.398438 -3.691406 1.484375 -3.765625 C 1.796875 -3.910156 2.007812 -4.101562 2.125 -4.34375 C 2.25 -4.59375 2.226562 -4.757812 2.0625 -4.84375 L 1.953125 -4.859375 L 1.84375 -4.859375 C 1.65625 -4.835938 1.457031 -4.703125 1.25 -4.453125 C 1.039062 -4.234375 0.894531 -3.96875 0.8125 -3.65625 Z M 0.8125 -3.65625 "/></g></g></g></g></g></g><g transform="matrix(1, 0, 0, 1, 6, 6)"><g clip-path="url(#91210a7b64)"><g fill="#ffffff" fill-opacity="1"><g transform="translate(0.33103, 12.327625)"><g><path d="M 8.359375 -1.703125 C 8.359375 -1.171875 8.097656 -0.75 7.578125 -0.4375 C 7.128906 -0.164062 6.59375 -0.03125 5.96875 -0.03125 C 4.664062 -0.03125 3.335938 -0.347656 1.984375 -0.984375 C 1.953125 -0.992188 1.90625 -0.992188 1.84375 -0.984375 C 1.789062 -0.960938 1.765625 -0.9375 1.765625 -0.90625 L 1.765625 -0.765625 C 1.765625 -0.710938 1.789062 -0.648438 1.84375 -0.578125 C 1.90625 -0.515625 1.9375 -0.445312 1.9375 -0.375 C 1.9375 -0.101562 1.773438 0.03125 1.453125 0.03125 C 1.140625 0.03125 0.984375 -0.0859375 0.984375 -0.328125 C 0.984375 -0.460938 1.035156 -0.613281 1.140625 -0.78125 C 1.242188 -0.957031 1.296875 -1.101562 1.296875 -1.21875 L 1.296875 -8.0625 C 1.296875 -8.125 1.273438 -8.175781 1.234375 -8.21875 C 1.191406 -8.269531 1.144531 -8.285156 1.09375 -8.265625 C 1.050781 -8.253906 1 -8.269531 0.9375 -8.3125 C 0.832031 -8.414062 0.832031 -8.535156 0.9375 -8.671875 C 0.976562 -8.753906 1.085938 -8.875 1.265625 -9.03125 C 1.835938 -9.570312 2.539062 -9.976562 3.375 -10.25 C 3.945312 -10.425781 4.460938 -10.515625 4.921875 -10.515625 C 5.878906 -10.515625 6.675781 -10.242188 7.3125 -9.703125 C 8.007812 -9.097656 8.359375 -8.269531 8.359375 -7.21875 C 8.359375 -5.320312 7.40625 -3.921875 5.5 -3.015625 C 5.613281 -3.023438 5.835938 -3.054688 6.171875 -3.109375 C 6.410156 -3.140625 6.625 -3.15625 6.8125 -3.15625 C 7.257812 -3.15625 7.628906 -3.019531 7.921875 -2.75 C 8.210938 -2.488281 8.359375 -2.140625 8.359375 -1.703125 Z M 7.84375 -7.140625 C 7.84375 -7.953125 7.585938 -8.632812 7.078125 -9.1875 C 6.566406 -9.738281 5.890625 -10.015625 5.046875 -10.015625 C 4.171875 -10.015625 3.363281 -9.800781 2.625 -9.375 C 2.050781 -9.039062 1.765625 -8.640625 1.765625 -8.171875 L 1.765625 -2.703125 C 1.765625 -2.398438 1.84375 -2.25 2 -2.25 C 2.050781 -2.25 2.101562 -2.253906 2.15625 -2.265625 C 3.988281 -2.835938 5.300781 -3.394531 6.09375 -3.9375 C 7.257812 -4.769531 7.84375 -5.835938 7.84375 -7.140625 Z M 7.859375 -1.75 C 7.859375 -2.03125 7.726562 -2.257812 7.46875 -2.4375 C 7.21875 -2.613281 6.925781 -2.691406 6.59375 -2.671875 C 5.863281 -2.640625 5.125 -2.546875 4.375 -2.390625 C 4.320312 -2.367188 3.566406 -2.175781 2.109375 -1.8125 C 1.898438 -1.769531 1.796875 -1.734375 1.796875 -1.703125 C 1.796875 -1.671875 1.859375 -1.613281 1.984375 -1.53125 C 3.085938 -0.84375 4.316406 -0.5 5.671875 -0.5 C 6.273438 -0.5 6.773438 -0.59375 7.171875 -0.78125 C 7.628906 -1.007812 7.859375 -1.332031 7.859375 -1.75 Z M 7.859375 -1.75 "/></g></g></g><g fill="#ffffff" fill-opacity="1"><g transform="translate(9.709793, 12.327625)"><g><path d="M 2.5625 1.21875 C 2.5625 1.40625 2.457031 1.5 2.25 1.5 C 2.050781 1.5 1.882812 1.414062 1.75 1.25 C 1.238281 0.59375 0.984375 -0.171875 0.984375 -1.046875 L 0.984375 -9.609375 C 0.984375 -9.691406 0.972656 -9.796875 0.953125 -9.921875 C 0.941406 -10.046875 0.9375 -10.140625 0.9375 -10.203125 C 0.9375 -10.460938 1.054688 -10.59375 1.296875 -10.59375 C 1.492188 -10.59375 1.59375 -10.457031 1.59375 -10.1875 C 1.59375 -10.125 1.578125 -10.039062 1.546875 -9.9375 C 1.515625 -9.832031 1.5 -9.738281 1.5 -9.65625 L 1.5 -1.046875 C 1.5 -0.378906 1.632812 0.175781 1.90625 0.625 C 1.957031 0.6875 2.078125 0.769531 2.265625 0.875 C 2.460938 0.976562 2.5625 1.09375 2.5625 1.21875 Z M 2.5625 1.21875 "/></g></g></g><g fill="#ffffff" fill-opacity="1"><g transform="translate(12.278817, 12.327625)"><g><path d="M 7.90625 -3.9375 C 7.90625 -2.875 7.550781 -1.953125 6.84375 -1.171875 C 6.132812 -0.390625 5.265625 0 4.234375 0 C 3.242188 0 2.410156 -0.375 1.734375 -1.125 C 1.066406 -1.875 0.734375 -2.757812 0.734375 -3.78125 C 0.734375 -4.863281 1.066406 -5.8125 1.734375 -6.625 C 2.410156 -7.445312 3.257812 -7.859375 4.28125 -7.859375 C 5.332031 -7.859375 6.195312 -7.472656 6.875 -6.703125 C 7.5625 -5.929688 7.90625 -5.007812 7.90625 -3.9375 Z M 7.359375 -3.96875 C 7.359375 -4.832031 7.066406 -5.601562 6.484375 -6.28125 C 5.898438 -6.96875 5.1875 -7.3125 4.34375 -7.3125 C 3.425781 -7.3125 2.695312 -6.960938 2.15625 -6.265625 C 1.625 -5.578125 1.359375 -4.753906 1.359375 -3.796875 C 1.359375 -2.867188 1.625 -2.082031 2.15625 -1.4375 C 2.695312 -0.800781 3.378906 -0.484375 4.203125 -0.484375 C 5.097656 -0.484375 5.847656 -0.832031 6.453125 -1.53125 C 7.054688 -2.226562 7.359375 -3.039062 7.359375 -3.96875 Z M 7.359375 -3.96875 "/></g></g></g><g fill="#ffffff" fill-opacity="1"><g transform="translate(20.988553, 12.327625)"><g><path d="M 7.90625 -3.9375 C 7.90625 -2.875 7.550781 -1.953125 6.84375 -1.171875 C 6.132812 -0.390625 5.265625 0 4.234375 0 C 3.242188 0 2.410156 -0.375 1.734375 -1.125 C 1.066406 -1.875 0.734375 -2.757812 0.734375 -3.78125 C 0.734375 -4.863281 1.066406 -5.8125 1.734375 -6.625 C 2.410156 -7.445312 3.257812 -7.859375 4.28125 -7.859375 C 5.332031 -7.859375 6.195312 -7.472656 6.875 -6.703125 C 7.5625 -5.929688 7.90625 -5.007812 7.90625 -3.9375 Z M 7.359375 -3.96875 C 7.359375 -4.832031 7.066406 -5.601562 6.484375 -6.28125 C 5.898438 -6.96875 5.1875 -7.3125 4.34375 -7.3125 C 3.425781 -7.3125 2.695312 -6.960938 2.15625 -6.265625 C 1.625 -5.578125 1.359375 -4.753906 1.359375 -3.796875 C 1.359375 -2.867188 1.625 -2.082031 2.15625 -1.4375 C 2.695312 -0.800781 3.378906 -0.484375 4.203125 -0.484375 C 5.097656 -0.484375 5.847656 -0.832031 6.453125 -1.53125 C 7.054688 -2.226562 7.359375 -3.039062 7.359375 -3.96875 Z M 7.359375 -3.96875 "/></g></g></g><g fill="#ffffff" fill-opacity="1"><g transform="translate(29.698289, 12.327625)"><g><path d="M 11.28125 -4.5 C 11.28125 -3.925781 11.179688 -3.359375 10.984375 -2.796875 C 10.785156 -2.234375 10.585938 -1.679688 10.390625 -1.140625 C 10.359375 -1.046875 10.34375 -0.921875 10.34375 -0.765625 C 10.34375 -0.703125 10.359375 -0.625 10.390625 -0.53125 C 10.421875 -0.445312 10.4375 -0.390625 10.4375 -0.359375 C 10.4375 -0.0859375 10.320312 0.046875 10.09375 0.046875 C 9.820312 0.046875 9.6875 -0.101562 9.6875 -0.40625 C 9.6875 -0.582031 9.769531 -0.898438 9.9375 -1.359375 C 10.101562 -1.828125 10.269531 -2.3125 10.4375 -2.8125 C 10.601562 -3.3125 10.6875 -3.847656 10.6875 -4.421875 C 10.6875 -5.210938 10.488281 -5.878906 10.09375 -6.421875 C 9.707031 -6.960938 9.1875 -7.234375 8.53125 -7.234375 C 7.84375 -7.234375 7.238281 -7 6.71875 -6.53125 C 6.65625 -6.457031 6.625 -6.320312 6.625 -6.125 C 6.8125 -5.625 6.90625 -4.976562 6.90625 -4.1875 C 6.90625 -3.625 6.816406 -3.097656 6.640625 -2.609375 C 6.460938 -2.128906 6.28125 -1.640625 6.09375 -1.140625 C 6.0625 -1.046875 6.046875 -0.921875 6.046875 -0.765625 C 6.046875 -0.703125 6.0625 -0.625 6.09375 -0.53125 C 6.125 -0.445312 6.140625 -0.390625 6.140625 -0.359375 C 6.140625 -0.0859375 6.019531 0.046875 5.78125 0.046875 C 5.507812 0.046875 5.375 -0.101562 5.375 -0.40625 C 5.375 -0.582031 5.457031 -0.898438 5.625 -1.359375 C 5.789062 -1.828125 5.957031 -2.3125 6.125 -2.8125 C 6.289062 -3.3125 6.375 -3.847656 6.375 -4.421875 C 6.375 -5.203125 6.1875 -5.851562 5.8125 -6.375 C 5.445312 -6.90625 4.910156 -7.171875 4.203125 -7.171875 C 3.503906 -7.171875 2.878906 -6.859375 2.328125 -6.234375 C 1.773438 -5.617188 1.5 -4.972656 1.5 -4.296875 L 1.5 -0.984375 C 1.5 -0.898438 1.503906 -0.796875 1.515625 -0.671875 C 1.535156 -0.546875 1.546875 -0.445312 1.546875 -0.375 C 1.546875 -0.125 1.425781 0 1.1875 0 C 0.988281 0 0.890625 -0.132812 0.890625 -0.40625 C 0.890625 -0.488281 0.90625 -0.582031 0.9375 -0.6875 C 0.96875 -0.789062 0.984375 -0.875 0.984375 -0.9375 L 0.984375 -6.765625 C 0.984375 -6.847656 0.96875 -6.9375 0.9375 -7.03125 C 0.90625 -7.132812 0.890625 -7.222656 0.890625 -7.296875 C 0.890625 -7.566406 0.988281 -7.703125 1.1875 -7.703125 C 1.425781 -7.703125 1.546875 -7.570312 1.546875 -7.3125 C 1.546875 -7.25 1.546875 -7.160156 1.546875 -7.046875 C 1.535156 -6.953125 1.53125 -6.863281 1.53125 -6.78125 C 1.53125 -6.8125 1.519531 -6.71875 1.5 -6.5 C 1.5 -6.40625 1.515625 -6.359375 1.546875 -6.359375 C 1.597656 -6.359375 1.671875 -6.398438 1.765625 -6.484375 C 2.054688 -6.734375 2.34375 -6.976562 2.625 -7.21875 C 3.09375 -7.539062 3.628906 -7.703125 4.234375 -7.703125 C 5.046875 -7.703125 5.691406 -7.4375 6.171875 -6.90625 C 6.472656 -7.09375 6.78125 -7.285156 7.09375 -7.484375 C 7.5625 -7.703125 8.050781 -7.8125 8.5625 -7.8125 C 9.507812 -7.8125 10.222656 -7.429688 10.703125 -6.671875 C 11.085938 -6.078125 11.28125 -5.351562 11.28125 -4.5 Z M 11.28125 -4.5 "/></g></g></g></g></g></g></g></svg>